<svg width="147" height="41" viewBox="0 0 147 41" fill="none" xmlns="http://www.w3.org/2000/svg">
<path d="M33.3118 33.3128L24.6152 24.6162L33.3118 33.3128Z" fill="#F3F3F1"/>
<path d="M17.6528 7.6875C12.1485 7.6875 7.6875 12.1485 7.6875 17.6528C7.6875 23.1559 12.1485 27.6181 17.6528 27.6181C23.157 27.6181 27.6181 23.1559 27.6181 17.6528C27.6181 12.1485 23.157 7.6875 17.6528 7.6875ZM17.6528 22.4931C14.4855 22.4931 11.6497 20.5649 10.5347 17.6528C11.6497 14.7406 14.4855 12.8125 17.6528 12.8125C20.82 12.8125 23.6559 14.7406 24.7708 17.6528C23.6559 20.5649 20.82 22.4931 17.6528 22.4931Z" fill="#2FDF84"/>
<path d="M17.6532 19.6453C18.7539 19.6453 19.6463 18.753 19.6463 17.6522C19.6463 16.5515 18.7539 15.6592 17.6532 15.6592C16.5525 15.6592 15.6602 16.5515 15.6602 17.6522C15.6602 18.753 16.5525 19.6453 17.6532 19.6453Z" fill="#2FDF84"/>
<path d="M17.6532 12.8125C14.486 12.8125 11.6501 14.7406 10.5352 17.6528C11.6501 20.5649 14.486 22.4931 17.6532 22.4931C20.8205 22.4931 23.6563 20.5649 24.7713 17.6528C23.6563 14.7406 20.8205 12.8125 17.6532 12.8125ZM17.6532 19.6458C16.553 19.6458 15.6602 18.7529 15.6602 17.6528C15.6602 16.5526 16.553 15.6597 17.6532 15.6597C18.7534 15.6597 19.6463 16.5526 19.6463 17.6528C19.6463 18.7529 18.7534 19.6458 17.6532 19.6458Z" fill="#F3F3F1"/>
<path d="M10.25 17.6528C10.25 12.5847 14.0368 8.40956 18.934 7.77861C18.5138 7.72508 18.0878 7.6875 17.6528 7.6875C12.1485 7.6875 7.6875 12.1485 7.6875 17.6528C7.6875 23.1559 12.1485 27.6181 17.6528 27.6181C18.0878 27.6181 18.5138 27.5805 18.934 27.5269C14.0368 26.896 10.25 22.7208 10.25 17.6528Z" fill="#00B871"/>
<path d="M18.2227 17.6522C18.2227 17.0418 18.5028 16.5031 18.9345 16.1375C18.5871 15.8437 18.1441 15.6592 17.6532 15.6592C16.553 15.6592 15.6602 16.5521 15.6602 17.6522C15.6602 18.7524 16.553 19.6453 17.6532 19.6453C18.1441 19.6453 18.5871 19.4608 18.9345 19.167C18.5028 18.8014 18.2227 18.2627 18.2227 17.6522Z" fill="#00B871"/>
<path d="M13.0977 17.6528C14.0589 15.1415 16.3036 13.3683 18.9345 12.9264C18.5154 12.8558 18.0883 12.8125 17.6532 12.8125C14.486 12.8125 11.6501 14.7406 10.5352 17.6528C11.6501 20.5649 14.486 22.4931 17.6532 22.4931C18.0883 22.4931 18.5154 22.4486 18.9345 22.3792C16.3036 21.9373 14.0589 20.164 13.0977 17.6528Z" fill="#D5DBE1"/>
<path d="M17.6534 28.4719C11.6879 28.4719 6.83398 23.618 6.83398 17.6525C6.83398 11.687 11.6879 6.83301 17.6534 6.83301C19.5736 6.83301 21.4516 7.34209 23.0871 8.30673L22.2192 9.77931C20.8469 8.96956 19.2672 8.54134 17.6534 8.54134C12.6298 8.54134 8.54232 12.6288 8.54232 17.6525C8.54232 22.6761 12.6298 26.7636 17.6534 26.7636C22.6771 26.7636 26.7645 22.6761 26.7645 17.6525C26.7645 15.1161 25.7509 12.7598 23.9105 11.0184L25.0847 9.77704C27.2702 11.8453 28.4729 14.6424 28.4729 17.6525C28.4729 23.618 23.6189 28.4719 17.6534 28.4719Z" fill="#005321"/>
<path d="M24.0078 25.2227L25.2156 24.0149L33.9109 32.7102L32.7031 33.918L24.0078 25.2227Z" fill="#005321"/>
<path d="M17.6533 23.3467C14.1535 23.3467 10.9714 21.1817 9.73802 17.9586C9.66285 17.7616 9.66285 17.5441 9.73802 17.3471C10.9714 14.124 14.1535 11.959 17.6533 11.959C21.1531 11.959 24.3352 14.124 25.5686 17.3471C25.6437 17.5441 25.6437 17.7616 25.5686 17.9586C24.3352 21.1817 21.1531 23.3467 17.6533 23.3467ZM11.4589 17.6523C12.5203 20.0485 14.9689 21.6384 17.6533 21.6384C20.3377 21.6384 22.7863 20.0485 23.8477 17.6523C22.7863 15.2561 20.3377 13.6662 17.6533 13.6662C14.9689 13.6662 12.5203 15.2561 11.4589 17.6523Z" fill="black"/>
<path d="M17.6519 20.5001C16.0825 20.5001 14.8047 19.2234 14.8047 17.6529C14.8047 16.0824 16.0825 14.8057 17.6519 14.8057C19.2213 14.8057 20.4991 16.0824 20.4991 17.6529C20.4991 19.2234 19.2213 20.5001 17.6519 20.5001ZM17.6519 16.514C17.0244 16.514 16.513 17.0242 16.513 17.6529C16.513 18.2816 17.0244 18.7918 17.6519 18.7918C18.2794 18.7918 18.7908 18.2816 18.7908 17.6529C18.7908 17.0242 18.2794 16.514 17.6519 16.514Z" fill="black"/>
<path d="M43.7784 15.6364C43.7784 12.7812 42.0057 11.1534 39.6918 11.1534C37.3651 11.1534 35.6051 12.7812 35.6051 15.6364C35.6051 18.4787 37.3651 20.1193 39.6918 20.1193C42.0057 20.1193 43.7784 18.4915 43.7784 15.6364ZM41.9077 15.6364C41.9077 17.4858 41.0298 18.4872 39.6918 18.4872C38.3494 18.4872 37.4759 17.4858 37.4759 15.6364C37.4759 13.7869 38.3494 12.7855 39.6918 12.7855C41.0298 12.7855 41.9077 13.7869 41.9077 15.6364ZM45.1452 20H50.7319V18.4787H46.9904V11.2727H45.1452V20ZM51.9538 20H53.799V16.3949H57.5447V20H59.3857V11.2727H57.5447V14.8736H53.799V11.2727H51.9538V20ZM68.9268 15.6364C68.9268 12.7812 67.1541 11.1534 64.8402 11.1534C62.5135 11.1534 60.7536 12.7812 60.7536 15.6364C60.7536 18.4787 62.5135 20.1193 64.8402 20.1193C67.1541 20.1193 68.9268 18.4915 68.9268 15.6364ZM67.0561 15.6364C67.0561 17.4858 66.1783 18.4872 64.8402 18.4872C63.4979 18.4872 62.6243 17.4858 62.6243 15.6364C62.6243 13.7869 63.4979 12.7855 64.8402 12.7855C66.1783 12.7855 67.0561 13.7869 67.0561 15.6364ZM80.3707 11.2727H78.5341V16.7614H78.4574L74.6903 11.2727H73.071V20H74.9162V14.5071H74.9801L78.777 20H80.3707V11.2727ZM89.9151 15.6364C89.9151 12.7812 88.1424 11.1534 85.8285 11.1534C83.5018 11.1534 81.7418 12.7812 81.7418 15.6364C81.7418 18.4787 83.5018 20.1193 85.8285 20.1193C88.1424 20.1193 89.9151 18.4915 89.9151 15.6364ZM88.0444 15.6364C88.0444 17.4858 87.1665 18.4872 85.8285 18.4872C84.4862 18.4872 83.6126 17.4858 83.6126 15.6364C83.6126 13.7869 84.4862 12.7855 85.8285 12.7855C87.1665 12.7855 88.0444 13.7869 88.0444 15.6364ZM101.76 14.3281C101.517 12.3125 99.9911 11.1534 97.9712 11.1534C95.6658 11.1534 93.9059 12.7812 93.9059 15.6364C93.9059 18.483 95.636 20.1193 97.9712 20.1193C100.208 20.1193 101.559 18.6321 101.76 17.0256L99.8931 17.017C99.7184 17.9503 98.9854 18.4872 98.0011 18.4872C96.6758 18.4872 95.7766 17.5028 95.7766 15.6364C95.7766 13.821 96.663 12.7855 98.0138 12.7855C99.0238 12.7855 99.7525 13.3693 99.8931 14.3281H101.76ZM103.083 20H104.928V16.9062H106.275L107.928 20H109.965L108.111 16.608C109.104 16.1818 109.654 15.3168 109.654 14.1236C109.654 12.3892 108.507 11.2727 106.526 11.2727H103.083V20ZM104.928 15.4233V12.7812H106.172C107.238 12.7812 107.753 13.2543 107.753 14.1236C107.753 14.9886 107.238 15.4233 106.181 15.4233H104.928ZM110.958 20H116.855V18.4787H112.803V16.3949H116.536V14.8736H112.803V12.794H116.838V11.2727H110.958V20ZM113.259 10.429H114.542L115.841 8.49006H114.162L113.259 10.429ZM121.399 20C124.058 20 125.669 18.3551 125.669 15.6278C125.669 12.9091 124.058 11.2727 121.425 11.2727H118.305V20H121.399ZM120.151 18.419V12.8537H121.327C122.963 12.8537 123.828 13.6889 123.828 15.6278C123.828 17.5753 122.963 18.419 121.322 18.419H120.151ZM128.881 11.2727H127.036V20H128.881V11.2727ZM130.067 12.794H132.739V20H134.562V12.794H137.234V11.2727H130.067V12.794ZM146.048 15.6364C146.048 12.7812 144.275 11.1534 141.961 11.1534C139.635 11.1534 137.875 12.7812 137.875 15.6364C137.875 18.4787 139.635 20.1193 141.961 20.1193C144.275 20.1193 146.048 18.4915 146.048 15.6364ZM144.177 15.6364C144.177 17.4858 143.299 18.4872 141.961 18.4872C140.619 18.4872 139.745 17.4858 139.745 15.6364C139.745 13.7869 140.619 12.7855 141.961 12.7855C143.299 12.7855 144.177 13.7869 144.177 15.6364Z" fill="#8D8D8D"/>
<path d="M70.1655 27.1087C70.0312 26.1392 69.2855 25.5767 68.3182 25.5767C67.1783 25.5767 66.3196 26.4077 66.3196 27.8182C66.3196 29.2266 67.1676 30.0597 68.3182 30.0597C69.3558 30.0597 70.044 29.3885 70.1655 28.5554L69.3686 28.5511C69.2685 29.0625 68.8509 29.3501 68.3288 29.3501C67.6214 29.3501 67.1143 28.8196 67.1143 27.8182C67.1143 26.8338 67.6172 26.2862 68.331 26.2862C68.8615 26.2862 69.277 26.5866 69.3686 27.1087H70.1655ZM75.2885 27.8182C75.2885 26.4077 74.4277 25.5767 73.2836 25.5767C72.1373 25.5767 71.2786 26.4077 71.2786 27.8182C71.2786 29.2266 72.1373 30.0597 73.2836 30.0597C74.4277 30.0597 75.2885 29.2287 75.2885 27.8182ZM74.4938 27.8182C74.4938 28.8111 73.9952 29.3501 73.2836 29.3501C72.574 29.3501 72.0733 28.8111 72.0733 27.8182C72.0733 26.8253 72.574 26.2862 73.2836 26.2862C73.9952 26.2862 74.4938 26.8253 74.4938 27.8182ZM80.1218 25.6364H79.3356V28.6108H79.2972L77.2433 25.6364H76.5359V30H77.3263V27.0277H77.3626L79.4187 30H80.1218V25.6364ZM83.8546 26.8359H84.6152C84.6003 26.0987 83.9718 25.5767 83.0428 25.5767C82.1266 25.5767 81.4384 26.0923 81.4405 26.8636C81.4405 27.4901 81.8858 27.8501 82.6039 28.0355L83.1003 28.1634C83.5712 28.2827 83.8823 28.4297 83.8844 28.7685C83.8823 29.1413 83.5286 29.3906 83.013 29.3906C82.5186 29.3906 82.1351 29.169 82.1032 28.7109H81.3255C81.3574 29.5781 82.003 30.0661 83.0194 30.0661C84.0655 30.0661 84.6728 29.544 84.6749 28.7749C84.6728 28.0185 84.0485 27.6733 83.3922 27.5178L82.9831 27.4155C82.6252 27.3303 82.2374 27.179 82.2417 26.8146C82.2438 26.4865 82.5378 26.2457 83.0321 26.2457C83.503 26.2457 83.8141 26.4652 83.8546 26.8359ZM88.6303 25.6364V28.4212C88.6303 28.9688 88.2489 29.3608 87.6502 29.3608C87.0494 29.3608 86.6701 28.9688 86.6701 28.4212V25.6364H85.8796V28.4872C85.8796 29.4247 86.5827 30.0661 87.6502 30.0661C88.7134 30.0661 89.4208 29.4247 89.4208 28.4872V25.6364H88.6303ZM90.78 30H93.4924V29.3374H91.5705V25.6364H90.78V30ZM93.93 26.299H95.2788V30H96.0629V26.299H97.4116V25.6364H93.93V26.299ZM98.6158 30L98.9759 28.924H100.616L100.979 30H101.822L100.284 25.6364H99.3082L97.772 30H98.6158ZM99.1889 28.2891L99.7791 26.5312H99.8132L100.403 28.2891H99.1889ZM106.364 30C107.694 30 108.482 29.1776 108.482 27.8139C108.482 26.4545 107.694 25.6364 106.394 25.6364H104.885V30H106.364ZM105.676 29.3161V26.3203H106.349C107.236 26.3203 107.698 26.8146 107.698 27.8139C107.698 28.8175 107.236 29.3161 106.326 29.3161H105.676ZM109.733 30H112.588V29.3374H110.524V28.1463H112.424V27.4837H110.524V26.299H112.571V25.6364H109.733V30ZM119.601 27.1087C119.467 26.1392 118.721 25.5767 117.754 25.5767C116.614 25.5767 115.755 26.4077 115.755 27.8182C115.755 29.2266 116.603 30.0597 117.754 30.0597C118.791 30.0597 119.48 29.3885 119.601 28.5554L118.804 28.5511C118.704 29.0625 118.286 29.3501 117.764 29.3501C117.057 29.3501 116.55 28.8196 116.55 27.8182C116.55 26.8338 117.053 26.2862 117.767 26.2862C118.297 26.2862 118.713 26.5866 118.804 27.1087H119.601ZM120.825 30H121.615V28.402H122.421L123.277 30H124.159L123.216 28.2699C123.729 28.0632 124 27.6243 124 27.032C124 26.1989 123.463 25.6364 122.461 25.6364H120.825V30ZM121.615 27.7457V26.2969H122.34C122.93 26.2969 123.194 26.5675 123.194 27.032C123.194 27.4964 122.93 27.7457 122.344 27.7457H121.615ZM125.227 30H128.082V29.3374H126.018V28.1463H127.918V27.4837H126.018V26.299H128.065V25.6364H125.227V30ZM126.352 25.206H126.93L127.584 24.2322H126.83L126.352 25.206ZM130.85 30C132.18 30 132.968 29.1776 132.968 27.8139C132.968 26.4545 132.18 25.6364 130.88 25.6364H129.372V30H130.85ZM130.162 29.3161V26.3203H130.836C131.722 26.3203 132.184 26.8146 132.184 27.8139C132.184 28.8175 131.722 29.3161 130.812 29.3161H130.162ZM135.01 25.6364H134.219V30H135.01V25.6364ZM136.174 26.299H137.523V30H138.307V26.299H139.656V25.6364H136.174V26.299ZM144.539 27.8182C144.539 26.4077 143.678 25.5767 142.534 25.5767C141.387 25.5767 140.529 26.4077 140.529 27.8182C140.529 29.2266 141.387 30.0597 142.534 30.0597C143.678 30.0597 144.539 29.2287 144.539 27.8182ZM143.744 27.8182C143.744 28.8111 143.245 29.3501 142.534 29.3501C141.824 29.3501 141.323 28.8111 141.323 27.8182C141.323 26.8253 141.824 26.2862 142.534 26.2862C143.245 26.2862 143.744 26.8253 143.744 27.8182Z" fill="#7A7A7A"/>
</svg>
