<svg width="205" height="205" viewBox="0 0 205 205" fill="none" xmlns="http://www.w3.org/2000/svg">
<path d="M43.987 84.4053C39.5111 121.555 75.9876 153.386 94.7853 164.658C112.756 175.209 126.588 162.331 131.258 154.573C135.863 145.703 147.756 126.959 158.49 122.944C171.909 117.924 175.348 94.8321 161.355 89.6622C150.16 85.5263 143.237 71.3455 141.174 64.7721C133.05 29.0648 95.0693 32.606 89.1396 46.7011C83.2099 60.7962 67.0592 64.9328 56.1785 67.4999C47.474 69.5536 44.4239 79.6259 43.987 84.4053Z" fill="url(#paint0_linear)"/>
<path d="M40.1305 83.3245C35.3839 122.672 74.1068 156.393 94.0616 168.334C113.139 179.512 127.82 165.873 132.776 157.656C137.662 148.262 150.284 128.41 161.679 124.158C175.921 118.843 179.569 94.3843 164.715 88.9067C152.831 84.5246 145.481 69.5035 143.291 62.5407C134.663 24.7187 94.3472 28.465 88.0546 43.3937C81.7621 58.3225 64.6188 62.702 53.0695 65.4198C43.83 67.594 40.5937 78.2621 40.1305 83.3245Z" stroke="#6D6E6D" stroke-opacity="0.32"/>
<path d="M172.47 77.9649C152.139 40.5566 97.3094 34.9358 72.4361 36.8014C48.805 38.7939 44.4568 59.8145 45.2367 70.0757C46.8095 81.3259 48.1263 106.518 40.8113 117.283C31.6674 130.739 43.6955 154.423 60.0885 150.045C73.203 146.542 88.9741 155.162 95.2203 159.91C126.293 187.718 159.205 159.528 155.418 142.56C151.631 125.592 163.893 111.163 172.298 101.647C179.022 94.0332 175.214 82.6866 172.47 77.9649Z" stroke="#6D6E6D" stroke-opacity="0.25"/>
<path d="M153.778 155.653C179.365 121.618 161.573 69.5897 149.478 47.8301C137.787 27.2491 116.818 32.0827 107.795 37.0722C98.202 43.193 75.8 54.9007 62.9349 52.7655C46.8536 50.0964 30.3016 70.8805 41.1411 83.9073C49.8128 94.3288 48.5502 112.217 46.8349 119.858C34.4843 159.621 73.9229 177.677 87.7998 167.164C101.677 156.65 119.947 161.738 132.13 165.382C141.877 168.297 150.623 160.111 153.778 155.653Z" stroke="#6D6E6D" stroke-opacity="0.1"/>
<g clip-path="url(#clip0)">
<path d="M88.348 142.339V135.882C79.8411 112.743 88.6135 104.672 88.6135 104.672L93.7147 102.074L122.594 87.3677C122.594 87.3677 136.095 104.596 122.413 128.17L122.248 142.179" fill="#FFCEBF"/>
<path d="M93.503 135.414V142.315L88.348 142.339V135.881C79.8411 112.743 88.6135 104.671 88.6135 104.671L93.5991 102.132C92.3189 103.531 85.1557 112.709 93.503 135.414Z" fill="#FFB09E"/>
<path d="M142.569 103.879H70.0069C68.1542 103.879 66.6523 102.378 66.6523 100.525V64.9161C66.6523 63.0634 68.1542 61.5615 70.0069 61.5615H142.569C144.422 61.5615 145.924 63.0634 145.924 64.9161V100.525C145.924 102.378 144.422 103.879 142.569 103.879Z" fill="#6CF5C2"/>
<path d="M106.215 97.2644C114.288 97.2644 120.833 90.7199 120.833 82.6468C120.833 74.5738 114.288 68.0293 106.215 68.0293C98.1422 68.0293 91.5977 74.5738 91.5977 82.6468C91.5977 90.7199 98.1422 97.2644 106.215 97.2644Z" fill="#05E39C"/>
<path d="M115.682 108.6V90.4574C115.682 87.0623 113.242 84.3101 110.232 84.3101C107.223 84.3101 104.783 87.0623 104.783 90.4574V105.301C104.783 105.301 96.8083 110.099 99.7323 120.595" fill="#FFCEBF"/>
<path d="M74.8938 103.88H70.0076C68.1541 103.88 66.6523 102.378 66.6523 100.524V64.9167C66.6523 63.0632 68.1541 61.5615 70.0076 61.5615H74.8938C73.0403 61.5615 71.5386 63.0632 71.5386 64.9167V100.524C71.5386 102.378 73.0403 103.88 74.8938 103.88Z" fill="#05E39C"/>
<path d="M112.184 84.7165C112.398 84.8095 112.429 85.1038 112.237 85.2384C111.884 85.4869 111.557 85.7801 111.264 86.1115C110.277 87.2223 109.668 88.7599 109.668 90.457V104.325C109.668 104.911 109.397 105.462 108.936 105.825C107.374 107.059 103.862 110.496 103.978 116.404C103.99 117.02 103.708 117.605 103.215 117.975L100.091 120.325C99.9179 120.455 99.6692 120.365 99.6159 120.155C97.2323 110.761 103.633 106.065 104.648 105.388C104.732 105.332 104.782 105.238 104.782 105.137V90.4572C104.782 88.76 105.391 87.2225 106.378 86.1117C107.365 84.9976 108.727 84.3103 110.232 84.3103C110.92 84.3101 111.578 84.454 112.184 84.7165Z" fill="#FFB09E"/>
<path d="M122.061 135.987C121.387 135.987 120.84 136.534 120.84 137.209V141.338C120.84 142.012 121.387 142.559 122.061 142.559C122.736 142.559 123.283 142.012 123.283 141.338V137.209C123.283 136.534 122.736 135.987 122.061 135.987Z" fill="black"/>
<path d="M146.097 86.9616C145.422 86.9616 144.875 87.5084 144.875 88.1832V100.189C144.875 101.364 143.919 102.321 142.743 102.321H116.904V94.3309C120.184 91.3328 122.055 87.1075 122.055 82.6472C122.055 73.9132 114.949 66.8076 106.215 66.8076C97.4811 66.8076 90.3755 73.9132 90.3755 82.6472C90.3755 86.6073 91.8448 90.3979 94.5127 93.3207C96.9106 95.9477 100.092 97.6732 103.563 98.2588V102.321H80.6356C79.961 102.321 79.4141 102.867 79.4141 103.542C79.4141 104.217 79.961 104.764 80.6356 104.764H86.7724C84.5915 107.808 80.2529 116.895 87.1262 135.519V141.679C87.1262 142.354 87.6731 142.901 88.3478 142.901C89.0224 142.901 89.5693 142.354 89.5693 141.679V135.3C89.5693 135.154 89.5433 135.01 89.4926 134.874C85.2621 123.504 85.4906 116.062 86.4271 111.821C87.4179 107.335 89.3888 105.413 89.4415 105.363C89.6226 105.196 89.7411 104.986 89.7972 104.764H103.428C102.625 105.381 101.294 106.562 100.137 108.347C98.5154 110.849 96.9243 115.062 98.5569 120.922C98.7074 121.462 99.1983 121.816 99.733 121.816C99.8415 121.816 99.9519 121.801 100.062 121.771C100.711 121.59 101.092 120.916 100.91 120.266C98.2831 110.836 105.125 106.524 105.414 106.347C105.781 106.127 106.006 105.729 106.006 105.301V90.4571C106.006 87.741 107.902 85.5312 110.234 85.5312C112.565 85.5312 114.461 87.741 114.461 90.4571V108.599C114.461 109.274 115.008 109.821 115.683 109.821C116.358 109.821 116.904 109.274 116.904 108.599V104.764H127.605C127.172 109.94 125.385 121.932 121.038 128.645C120.91 128.843 120.841 129.074 120.841 129.309V131.671C120.841 132.346 121.388 132.892 122.063 132.892C122.737 132.892 123.284 132.346 123.284 131.671V129.664C127.811 122.404 129.637 109.968 130.055 104.764H142.743C145.266 104.764 147.318 102.711 147.318 100.189V88.1832C147.318 87.5084 146.771 86.9616 146.097 86.9616ZM110.234 83.0881C106.555 83.0881 103.563 86.3938 103.563 90.4571V95.7792C97.3513 94.547 92.8187 89.1213 92.8187 82.6472C92.8187 75.2603 98.8283 69.2507 106.215 69.2507C113.602 69.2507 119.612 75.2603 119.612 82.6472C119.612 85.5925 118.647 88.4167 116.904 90.7206V90.4572C116.904 86.3938 113.912 83.0881 110.234 83.0881Z" fill="black"/>
<path d="M142.743 60.2502H70.1803C67.6566 60.2502 65.6035 62.3033 65.6035 64.827V100.189C65.6035 102.712 67.6566 104.764 70.1803 104.764H75.0975C75.7721 104.764 76.3191 104.217 76.3191 103.542C76.3191 102.868 75.7721 102.321 75.0975 102.321H70.1803C69.0039 102.321 68.0466 101.364 68.0466 100.189V64.827C68.0466 63.6506 69.0039 62.6934 70.1803 62.6934H142.743C143.918 62.6934 144.875 63.6506 144.875 64.827V82.6456C144.875 83.3203 145.422 83.8671 146.096 83.8671C146.771 83.8671 147.318 83.3203 147.318 82.6456V64.827C147.318 62.3033 145.266 60.2502 142.743 60.2502V60.2502Z" fill="black"/>
</g>
<defs>
<linearGradient id="paint0_linear" x1="47.376" y1="148.489" x2="164.477" y2="42.8113" gradientUnits="userSpaceOnUse">
<stop stop-color="#79F543"/>
<stop offset="1" stop-color="#12BE57"/>
</linearGradient>
<clipPath id="clip0">
<rect width="82.6509" height="82.6509" fill="white" transform="translate(65.1348 60.2502)"/>
</clipPath>
</defs>
</svg>
