<svg width="204" height="205" viewBox="0 0 204 205" fill="none" xmlns="http://www.w3.org/2000/svg">
<path d="M43.3265 84.9124C38.853 122.042 75.3103 153.857 94.0982 165.123C112.06 175.669 125.885 162.797 130.552 155.043C135.154 146.178 147.041 127.444 157.77 123.431C171.181 118.414 174.619 95.3337 160.633 90.1665C149.444 86.0328 142.524 71.8594 140.463 65.2894C132.343 29.6008 94.3821 33.1402 88.4555 47.2279C82.5289 61.3156 66.3866 65.4501 55.5116 68.0159C46.8116 70.0685 43.7632 80.1355 43.3265 84.9124Z" fill="url(#paint0_linear)"/>
<path d="M39.4737 83.8321C34.7296 123.16 73.4323 156.862 93.3766 168.797C112.444 179.969 127.117 166.337 132.07 158.125C136.955 148.735 149.57 128.894 160.958 124.644C175.193 119.332 178.839 94.8861 163.993 89.4114C152.116 85.0316 144.769 70.0183 142.58 63.0592C133.957 25.257 93.6621 29.0013 87.3728 43.9222C81.0835 58.8431 63.9492 63.2205 52.406 65.9368C43.1714 68.1098 39.9367 78.7724 39.4737 83.8321Z" stroke="#6D6E6D" stroke-opacity="0.32"/>
<path d="M171.743 78.4752C151.422 41.0865 96.6218 35.4687 71.7616 37.3333C48.1428 39.3248 43.797 60.3343 44.5764 70.5902C46.1484 81.8345 47.4646 107.013 40.1533 117.772C31.0142 131.222 43.036 154.893 59.4205 150.517C72.5281 147.017 88.2909 155.632 94.5339 160.377C125.591 188.171 158.485 159.995 154.7 143.036C150.915 126.077 163.17 111.656 171.571 102.144C178.292 94.5351 174.486 83.1944 171.743 78.4752Z" stroke="#6D6E6D" stroke-opacity="0.25"/>
<path d="M153.061 156.123C178.634 122.105 160.851 70.1045 148.763 48.3563C137.078 27.786 116.12 32.6172 107.101 37.604C97.5133 43.7216 75.123 55.4232 62.2647 53.2891C46.1918 50.6214 29.6484 71.3946 40.4823 84.4147C49.1494 94.8307 47.8874 112.71 46.1731 120.347C33.829 160.089 73.2469 178.135 87.1165 167.627C100.986 157.119 119.247 162.205 131.424 165.847C141.165 168.761 149.907 160.578 153.061 156.123Z" stroke="#6D6E6D" stroke-opacity="0.1"/>
<g clip-path="url(#clip0)">
<path d="M132.998 111.655V120.812V120.906C132.998 122.31 131.78 123.446 130.277 123.446H76.8239H72.3838C71.4041 123.446 70.5442 122.963 70.0647 122.238C69.8101 121.851 69.6621 121.394 69.6621 120.906V120.812V92.3165V87.6199V79.6026C69.6621 78.2006 70.8802 77.0637 72.3838 77.0637H76.8239H78.4622H78.4637H82.9038H95.7606H101.33H124.198H130.276C131.028 77.0637 131.709 77.3483 132.2 77.8069C132.262 77.8635 132.321 77.9243 132.376 77.9878C132.432 78.05 132.484 78.1149 132.533 78.1826C132.753 78.4865 132.904 78.8374 132.967 79.2159C132.98 79.3001 132.989 79.3858 132.995 79.4714C132.996 79.5156 132.998 79.5584 132.998 79.6026V106.959V111.655Z" fill="#8AC9FE"/>
<path d="M76.8239 123.446H72.3838C70.8816 123.446 69.6621 122.31 69.6621 120.906V79.6026C69.6621 78.2006 70.8816 77.0637 72.3838 77.0637H76.8239C75.3217 77.0637 74.1021 78.2006 74.1021 79.6026V120.906C74.1021 122.31 75.3217 123.446 76.8239 123.446Z" fill="#60B7FF"/>
<path d="M101.329 105.236C114.447 105.236 125.08 95.3111 125.08 83.0683C125.08 70.8254 114.447 60.9006 101.329 60.9006C88.2118 60.9006 77.5781 70.8254 77.5781 83.0683C77.5781 95.3111 88.2118 105.236 101.329 105.236Z" fill="#FFE177"/>
<path d="M133.927 128.567H68.7326C66.5622 128.567 64.8027 126.925 64.8027 124.899V124.48C64.8027 122.455 66.5622 120.812 68.7326 120.812H133.927C136.097 120.812 137.857 122.455 137.857 124.48V124.899C137.857 126.925 136.097 128.567 133.927 128.567Z" fill="#685E68"/>
<path d="M73.1722 128.567H68.7322C66.5625 128.567 64.8027 126.925 64.8027 124.9V124.48C64.8027 122.455 66.5625 120.812 68.7322 120.812H73.1722C71.0025 120.812 69.2428 122.455 69.2428 124.48V124.9C69.2428 126.925 71.0025 128.567 73.1722 128.567Z" fill="#554E56"/>
<path d="M88.9765 98.7427C93.048 102.544 98.234 104.676 103.552 105.138C96.7555 105.731 89.7387 103.598 84.5365 98.7427C75.2613 90.0858 75.2613 76.05 84.5365 67.3931C89.7387 62.5377 96.7555 60.4049 103.552 60.9975C98.234 61.4603 93.048 63.5931 88.9765 67.3931C79.7013 76.0499 79.7013 90.0858 88.9765 98.7427Z" fill="#FFD064"/>
<path d="M103.188 82.2845C103.162 82.278 102.736 82.1761 102.736 82.1761V73.2022C103.672 73.357 104.536 73.7691 105.226 74.4023C105.664 74.8031 106.366 74.7976 106.796 74.3894C107.226 73.9812 107.219 73.3254 106.782 72.9244C105.673 71.907 104.259 71.2785 102.736 71.1087V68.4291C102.736 67.8568 102.239 67.3931 101.626 67.3931C101.013 67.3931 100.516 67.8568 100.516 68.4291V71.189C97.3291 71.7888 94.9219 74.4218 94.9219 77.57C94.9219 80.71 97.3322 83.3472 100.516 83.9483V92.9328C100.377 92.9095 100.239 92.8812 100.102 92.8462C98.8682 92.5321 97.8436 91.7876 97.2165 90.7501C96.9154 90.2517 96.2383 90.0757 95.7044 90.3566C95.1705 90.6377 94.9817 91.2696 95.2828 91.768C96.2034 93.2912 97.7073 94.3841 99.5172 94.845C99.8479 94.9293 100.182 94.9884 100.516 95.0268V97.7073C100.516 98.2796 101.013 98.7433 101.626 98.7433C102.239 98.7433 102.736 98.2796 102.736 97.7073V94.948C103.456 94.8115 104.156 94.5678 104.813 94.2176C106.43 93.3554 107.591 91.9565 108.082 90.2789C108.573 88.6012 108.334 86.8458 107.41 85.3362C106.487 83.8268 104.988 82.7431 103.188 82.2845ZM97.1422 77.57C97.1422 75.5712 98.5658 73.8774 100.516 73.3239V81.8147C98.5673 81.2601 97.1422 79.5637 97.1422 77.57ZM105.941 89.7335C105.606 90.8771 104.815 91.8308 103.712 92.4186C103.4 92.5852 103.072 92.7154 102.736 92.8114V84.3205C103.903 84.6507 104.875 85.3719 105.483 86.3642C106.113 87.3933 106.275 88.5899 105.941 89.7335Z" fill="black"/>
<path d="M134.404 119.798V79.6026C134.404 77.6313 132.685 76.0277 130.572 76.0277H125.326C124.138 72.5318 122.064 69.3285 119.205 66.6607C109.512 57.6137 93.7399 57.6137 84.0465 66.6607C81.1883 69.3285 79.1134 72.5318 77.926 76.0277H72.68C70.5673 76.0277 68.8482 77.6313 68.8482 79.6026V87.62C68.8482 88.1923 69.3451 88.656 69.9582 88.656C70.5714 88.656 71.0682 88.1923 71.0682 87.62V79.6026C71.0682 78.774 71.7912 78.0997 72.68 78.0997H77.3343C76.959 79.7138 76.765 81.3771 76.765 83.0683C76.765 89.2661 79.351 95.0932 84.0465 99.4756C88.8932 103.999 95.2596 106.261 101.626 106.261C107.992 106.261 114.359 103.999 119.205 99.4756C123.901 95.093 126.487 89.2661 126.487 83.0683C126.487 81.3771 126.293 79.714 125.917 78.0997H130.572C131.461 78.0997 132.183 78.774 132.183 79.6026V119.776H71.0682V92.3165C71.0682 91.7442 70.5714 91.2805 69.9582 91.2805C69.3451 91.2805 68.8482 91.7442 68.8482 92.3165V119.776H68.7328C65.9539 119.776 63.6934 121.886 63.6934 124.48V124.9C63.6934 127.493 65.9539 129.603 68.7328 129.603H112.504C113.117 129.603 113.614 129.139 113.614 128.567C113.614 127.995 113.117 127.531 112.504 127.531H68.7328C67.1782 127.531 65.9134 126.351 65.9134 124.9V124.48C65.9134 123.029 67.1782 121.848 68.7328 121.848H133.927C135.482 121.848 136.747 123.029 136.747 124.48V124.9C136.747 126.351 135.482 127.531 133.927 127.531H117.536C116.923 127.531 116.426 127.995 116.426 128.567C116.426 129.139 116.923 129.603 117.536 129.603H133.927C136.706 129.603 138.967 127.493 138.967 124.9V124.48C138.967 122.036 136.96 120.023 134.404 119.798ZM117.636 98.0104C108.808 106.25 94.444 106.25 85.6165 98.0104C81.34 94.0193 78.985 88.7127 78.985 83.0683C78.985 81.1361 79.2611 79.2436 79.7957 77.4298C79.8179 77.375 79.8358 77.3182 79.848 77.2593C80.8889 73.8409 82.8499 70.708 85.6165 68.126C90.0303 64.0065 95.8281 61.9466 101.626 61.9466C107.424 61.9466 113.222 64.0065 117.636 68.126C120.402 70.708 122.363 73.8411 123.404 77.2593C123.416 77.3182 123.434 77.3748 123.456 77.4297C123.991 79.2435 124.267 81.1359 124.267 83.0682C124.267 88.7129 121.912 94.0194 117.636 98.0104Z" fill="black"/>
</g>
<defs>
<linearGradient id="paint0_linear" x1="46.7137" y1="148.963" x2="163.753" y2="43.3401" gradientUnits="userSpaceOnUse">
<stop stop-color="#79F543"/>
<stop offset="1" stop-color="#12BE57"/>
</linearGradient>
<clipPath id="clip0">
<rect width="75.2733" height="70.2551" fill="white" transform="translate(63.6934 59.6119)"/>
</clipPath>
</defs>
</svg>
