<svg width="203" height="205" viewBox="0 0 203 205" fill="none" xmlns="http://www.w3.org/2000/svg">
<path d="M43.2612 84.2321C38.7946 121.305 75.1961 153.071 93.9553 164.32C111.889 174.85 125.693 161.998 130.353 154.255C134.949 145.404 146.817 126.699 157.53 122.691C170.92 117.682 174.353 94.6375 160.388 89.4782C149.216 85.3508 142.307 71.199 140.249 64.6391C132.142 29.0051 94.2388 32.5391 88.3212 46.6052C82.4037 60.6714 66.2861 64.7996 55.4277 67.3614C46.7411 69.4108 43.6973 79.4625 43.2612 84.2321Z" fill="url(#paint0_linear)"/>
<path d="M39.412 83.1533C34.6751 122.421 73.3186 156.072 93.2325 167.989C112.271 179.144 126.921 165.532 131.867 157.332C136.744 147.957 149.34 128.146 160.711 123.903C174.924 118.599 178.564 94.1905 163.741 88.7241C151.882 84.351 144.546 69.3607 142.361 62.4122C133.75 24.6678 93.5175 28.4064 87.2378 43.3045C80.9582 58.2026 63.8501 62.5732 52.3244 65.2854C43.1039 67.4551 39.8743 78.1014 39.412 83.1533Z" stroke="#6D6E6D" stroke-opacity="0.32"/>
<path d="M171.48 77.8048C151.191 40.4733 96.4741 34.864 71.6519 36.7258C48.0693 38.7142 43.7301 59.6916 44.5083 69.9318C46.0779 81.1589 47.3921 106.299 40.092 117.042C30.9669 130.47 42.9703 154.106 59.3297 149.737C72.4172 146.242 88.156 154.844 94.3894 159.582C125.399 187.333 158.243 159.2 154.464 142.267C150.685 125.334 162.921 110.935 171.309 101.438C178.019 93.8401 174.219 82.5167 171.48 77.8048Z" stroke="#6D6E6D" stroke-opacity="0.25"/>
<path d="M152.827 155.334C178.361 121.368 160.605 69.4468 148.535 47.7319C136.868 27.1931 115.942 32.0168 106.938 36.9961C97.3645 43.1043 75.0085 54.788 62.1698 52.6571C46.1215 49.9935 29.6034 70.735 40.4208 83.7351C49.0746 94.1352 47.8146 111.987 46.1028 119.612C33.7776 159.293 73.1352 177.313 86.9836 166.821C100.832 156.329 119.065 161.406 131.223 165.043C140.95 167.952 149.678 159.782 152.827 155.334Z" stroke="#6D6E6D" stroke-opacity="0.1"/>
<g clip-path="url(#clip0)">
<path d="M141.825 118.577H63.4956C61.7602 118.577 60.3535 117.17 60.3535 115.435V72.1272C60.3535 70.3918 61.7604 68.9852 63.4956 68.9852H141.825C143.561 68.9852 144.968 70.392 144.968 72.1272V115.435C144.968 117.17 143.561 118.577 141.825 118.577Z" fill="#8AC9FE"/>
<path d="M69.0601 118.577H63.4944C61.7578 118.577 60.3516 117.171 60.3516 115.434V72.1269C60.3516 70.3922 61.7578 68.986 63.4944 68.986H69.0601C67.3236 68.986 65.9173 70.3922 65.9173 72.1269V115.434C65.9173 117.17 67.3236 118.577 69.0601 118.577Z" fill="#60B7FF"/>
<path d="M144.222 113.472C144.736 113.472 145.152 113.887 145.152 114.399V119.695C145.152 123.123 142.427 125.919 139.027 126.029C138.958 126.03 138.889 126.032 138.819 126.032H66.5171C66.4632 126.032 66.4073 126.032 66.3533 126.03C62.9306 125.943 60.1816 123.14 60.1816 119.695V114.399C60.1816 113.887 60.598 113.472 61.1115 113.472H144.222Z" fill="#F9F3F1"/>
<path d="M123.513 144.308H81.6221C80.326 144.308 79.2754 143.258 79.2754 141.962V139.699C79.2754 138.403 80.326 137.352 81.6221 137.352H123.513C124.809 137.352 125.86 138.403 125.86 139.699V141.962C125.86 143.258 124.809 144.308 123.513 144.308Z" fill="#F9F3F1"/>
<path d="M109.264 137.239V126.127H96.1738V126.633V137.239H109.264Z" fill="#F9F3F1"/>
<path d="M71.4395 113.472V105.886C71.4395 103.032 73.7437 100.719 76.5869 100.719H80.1519C82.9951 100.719 85.2993 103.032 85.2993 105.886V113.472H71.4395Z" fill="#FE646F"/>
<path d="M95.7891 113.472V99.3157C95.7891 96.4618 98.0933 94.1487 100.936 94.1487H104.502C107.345 94.1487 109.649 96.4616 109.649 99.3157V113.472H95.7891Z" fill="#FFE177"/>
<path d="M120.141 113.472V97.3836C120.141 94.5297 122.445 92.2166 125.288 92.2166H128.853C131.696 92.2166 134 94.5295 134 97.3836V113.472H120.141Z" fill="#6CF5C2"/>
<path d="M137.177 67.6351L131.245 80.8475C126.078 78.5097 122.74 73.3246 122.74 67.6351C122.74 62.7469 125.204 58.1768 129.281 55.5031L137.177 67.6351Z" fill="#6CF5C2"/>
<path d="M137.176 67.6352L151.596 66.9081C151.608 67.1502 151.614 67.3927 151.614 67.6352C151.614 75.5855 145.096 82.1275 137.176 82.1275C134.878 82.1275 132.612 81.5765 130.568 80.5204L137.176 67.6352Z" fill="#FE646F"/>
<path d="M137.178 67.6351L129.215 55.5463C131.577 53.9788 134.346 53.1428 137.178 53.1428C145.098 53.1428 151.615 59.6848 151.615 67.6351H137.178Z" fill="#FFE177"/>
<path d="M72.0831 126.033H66.5173C66.4635 126.033 66.4079 126.033 66.3541 126.031C62.9311 125.944 60.1816 123.141 60.1816 119.696V114.399C60.1816 113.887 60.5972 113.473 61.1111 113.473H66.6769C66.163 113.473 65.7474 113.887 65.7474 114.399V119.696C65.7474 123.141 68.4969 125.944 71.9198 126.031C71.9736 126.033 72.0293 126.033 72.0831 126.033Z" fill="#E1D3CE"/>
<path d="M96.1758 126.128H101.742V137.239H96.1758V126.128Z" fill="#E1D3CE"/>
<path d="M87.1881 144.309H81.6223C80.3255 144.309 79.2754 143.257 79.2754 141.962V139.699C79.2754 138.402 80.3255 137.352 81.6223 137.352H87.1881C85.8912 137.352 84.8412 138.402 84.8412 139.699V141.962C84.8412 143.257 85.8912 144.309 87.1881 144.309Z" fill="#E1D3CE"/>
<path d="M81.1517 100.817C78.7881 101.284 77.0052 103.375 77.0052 105.885V113.471H71.4395V105.885C71.4395 103.032 73.7437 100.718 76.5859 100.718H80.1517C80.4949 100.718 80.8289 100.751 81.1517 100.817Z" fill="#FD4755"/>
<path d="M105.503 94.247C103.138 94.7145 101.355 96.8054 101.355 99.3156V113.471H95.7891V99.3156C95.7891 96.4622 98.0933 94.1487 100.937 94.1487H104.501C104.845 94.1487 105.178 94.1821 105.503 94.247Z" fill="#FFD064"/>
<path d="M129.855 92.3157C127.491 92.7814 125.708 94.8723 125.708 97.3843V113.471H120.143V97.3843C120.143 94.5291 122.447 92.2174 125.289 92.2174H128.855C129.198 92.2172 129.532 92.2508 129.855 92.3157Z" fill="#00E499"/>
<path d="M145.079 90.5988C144.311 90.5988 143.688 91.2217 143.688 91.9902V112.081H135.402V97.3836C135.402 93.7673 132.469 90.8251 128.863 90.8251H125.298C121.693 90.8251 118.759 93.7672 118.759 97.3836V112.081H111.051V99.3158C111.051 95.6996 108.118 92.7573 104.512 92.7573H100.947C97.3416 92.7573 94.4084 95.6994 94.4084 99.3158V112.081H86.7V105.886C86.7 102.269 83.7667 99.3272 80.1614 99.3272H76.5961C72.9906 99.3272 70.0575 102.269 70.0575 105.886V112.081H61.7712V105.534C61.7712 104.765 61.1484 104.142 60.3797 104.142C59.6111 104.142 58.9883 104.765 58.9883 105.534V113.472C58.9883 113.476 58.9888 113.479 58.9888 113.483V119.694C58.9888 123.956 62.4454 127.423 66.6937 127.423H94.7934V135.848H81.7841C79.723 135.848 78.0462 137.525 78.0462 139.586V141.849C78.0462 143.91 79.723 145.587 81.7841 145.587H123.675C125.736 145.587 127.413 143.91 127.413 141.849V139.586C127.413 137.525 125.736 135.848 123.675 135.848H110.666V127.423H138.766C143.014 127.423 146.471 123.956 146.471 119.694V113.476C146.471 113.475 146.471 113.473 146.471 113.472V91.9902C146.471 91.2217 145.848 90.5988 145.079 90.5988ZM121.542 97.3836C121.542 95.3018 123.227 93.608 125.298 93.608H128.863C130.934 93.608 132.619 95.3016 132.619 97.3836V112.081H121.542V97.3836ZM97.1913 99.3158C97.1913 97.2341 98.8762 95.5402 100.947 95.5402H104.512C106.583 95.5402 108.268 97.2339 108.268 99.3158V112.081H97.1913V99.3158ZM72.8403 105.886C72.8403 103.804 74.5251 102.11 76.5961 102.11H80.1614C82.2324 102.11 83.9171 103.804 83.9171 105.886V112.081H72.8403V105.886ZM124.63 139.586V141.849C124.63 142.376 124.202 142.804 123.675 142.804H81.7841C81.2574 142.804 80.8291 142.376 80.8291 141.849V139.586C80.8291 139.059 81.2576 138.631 81.7841 138.631H123.675C124.202 138.631 124.63 139.059 124.63 139.586ZM107.883 135.848H97.5763V127.423H107.883V135.848ZM143.688 119.694C143.688 122.422 141.48 124.64 138.766 124.64H66.6937C63.9797 124.64 61.7717 122.422 61.7717 119.694V114.863H143.688V119.694Z" fill="black"/>
<path d="M72.111 93.7473C72.1525 93.751 72.1939 93.7529 72.2353 93.7529C72.6215 93.7529 72.9929 93.5918 73.2575 93.3052L77.7101 88.4816C78.2314 87.917 78.1962 87.0365 77.6315 86.5154C77.0665 85.994 76.1866 86.0293 75.6653 86.594L72.4384 90.0895L68.214 83.4512C67.8012 82.8026 66.9413 82.6121 66.2931 83.0243C65.6447 83.4369 65.4536 84.297 65.8662 84.9453L71.0609 93.1084C71.293 93.4727 71.6809 93.7087 72.111 93.7473Z" fill="black"/>
<path d="M80.2127 83.1777C80.6174 83.1777 81.0187 83.0022 81.2936 82.6637L85.1175 77.9572L87.3666 80.3314C87.895 80.8891 88.7757 80.9129 89.3337 80.3847C89.8916 79.8561 89.9153 78.9754 89.3868 78.4175L86.0473 74.8926C85.772 74.602 85.3863 74.4447 84.9845 74.4592C84.5843 74.4744 84.2099 74.6614 83.9574 74.9721L79.1337 80.909C78.6493 81.5054 78.7399 82.3817 79.3363 82.8662C79.5942 83.0759 79.9044 83.1777 80.2127 83.1777Z" fill="black"/>
<path d="M93.7416 84.086C93.27 83.4796 92.3956 83.3703 91.7891 83.8421C91.1825 84.3139 91.0734 85.1881 91.5452 85.7945L94.1425 89.134C94.4017 89.4674 94.7986 89.665 95.221 89.6711C95.2275 89.6711 95.2342 89.6713 95.2407 89.6713C95.6557 89.6713 96.0495 89.4858 96.3141 89.165L105.034 78.59C105.053 78.5665 105.07 78.5416 105.088 78.5169L105.799 80.5716C105.998 81.1473 106.537 81.5084 107.114 81.5084C107.265 81.5084 107.419 81.4837 107.569 81.4314C108.295 81.18 108.68 80.3876 108.429 79.6613L106.759 74.8376C106.538 74.1988 105.891 73.8107 105.223 73.9191L99.4716 74.8467C98.7129 74.9691 98.1972 75.6832 98.3195 76.442C98.4419 77.2006 99.1558 77.7175 99.9148 77.5941L102.606 77.16L95.2722 86.0539L93.7416 84.086Z" fill="black"/>
<path d="M153.015 67.6352C153.015 58.8769 145.914 51.7514 137.186 51.7514C128.716 51.7514 121.779 58.463 121.377 66.8647H66.4643C62.3415 66.8647 58.9876 70.2188 58.9876 74.3402L58.9707 98.8537C58.9701 99.6223 59.5928 100.246 60.3612 100.246H60.3621C61.1302 100.246 61.753 99.6236 61.7536 98.8556L61.7705 74.3412C61.7705 71.7531 63.8762 69.6474 66.4643 69.6474H121.489C122.478 77.4584 129.138 83.5187 137.186 83.5187C139.512 83.5187 141.721 83.0085 143.712 82.1004L143.748 85.5113C143.756 86.2747 144.377 86.8881 145.139 86.8881H145.154C145.922 86.8801 146.538 86.2506 146.531 85.4821L146.478 80.4826C150.435 77.5925 153.015 72.9117 153.015 67.6352ZM150.158 66.2437H137.931L131.129 56.0374C132.941 55.0795 135.001 54.5343 137.186 54.5343C143.911 54.5343 149.463 59.6717 150.158 66.2437ZM124.14 67.6352C124.14 63.6059 125.962 59.9971 128.821 57.5919L135.595 67.7574L130.45 78.8504C126.671 76.553 124.14 72.3855 124.14 67.6352ZM132.97 80.0301L138.075 69.0266H150.158C149.463 75.5987 143.912 80.736 137.186 80.736C135.711 80.736 134.294 80.4852 132.97 80.0301Z" fill="black"/>
</g>
<defs>
<linearGradient id="paint0_linear" x1="46.6433" y1="148.184" x2="163.504" y2="42.7234" gradientUnits="userSpaceOnUse">
<stop stop-color="#79F543"/>
<stop offset="1" stop-color="#12BE57"/>
</linearGradient>
<clipPath id="clip0">
<rect width="94.0441" height="94.0441" fill="white" transform="translate(58.9707 51.6472)"/>
</clipPath>
</defs>
</svg>
