<svg width="204" height="205" viewBox="0 0 204 205" fill="none" xmlns="http://www.w3.org/2000/svg">
<path d="M43.3265 84.3613C38.853 121.491 75.3103 153.306 94.0982 164.572C112.06 175.118 125.885 162.246 130.552 154.492C135.154 145.627 147.041 126.893 157.77 122.88C171.181 117.863 174.619 94.7826 160.633 89.6154C149.444 85.4816 142.524 71.3082 140.463 64.7383C132.343 29.0497 94.3821 32.5891 88.4555 46.6768C82.5289 60.7645 66.3866 64.899 55.5116 67.4647C46.8116 69.5173 43.7632 79.5843 43.3265 84.3613Z" fill="url(#paint0_linear)"/>
<path d="M39.4737 83.2808C34.7296 122.608 73.4323 156.311 93.3766 168.246C112.444 179.418 127.117 165.786 132.07 157.573C136.955 148.184 149.57 128.343 160.958 124.093C175.193 118.781 178.839 94.3349 163.993 88.8601C152.116 84.4803 144.769 69.4671 142.58 62.5079C133.957 24.7057 93.6621 28.45 87.3728 43.371C81.0835 58.2919 63.9492 62.6692 52.406 65.3855C43.1714 67.5586 39.9367 78.2211 39.4737 83.2808Z" stroke="#6D6E6D" stroke-opacity="0.32"/>
<path d="M171.743 77.9241C151.422 40.5354 96.6218 34.9175 71.7616 36.7822C48.1428 38.7736 43.797 59.7832 44.5764 70.039C46.1484 81.2834 47.4646 106.462 40.1533 117.221C31.0142 130.67 43.036 154.342 59.4205 149.966C72.5281 146.466 88.2909 155.081 94.5339 159.826C125.591 187.62 158.485 159.444 154.7 142.485C150.915 125.526 163.17 111.105 171.571 101.593C178.292 93.984 174.486 82.6433 171.743 77.9241Z" stroke="#6D6E6D" stroke-opacity="0.25"/>
<path d="M153.061 155.572C178.634 121.554 160.851 69.5533 148.763 47.8052C137.078 27.2349 116.12 32.066 107.101 37.0529C97.5133 43.1705 75.123 54.8721 62.2647 52.7379C46.1918 50.0702 29.6484 70.8435 40.4823 83.8635C49.1494 94.2795 47.8874 112.158 46.1731 119.796C33.829 159.538 73.2469 177.584 87.1165 167.076C100.986 156.568 119.247 161.653 131.424 165.296C141.165 168.209 149.907 160.027 153.061 155.572Z" stroke="#6D6E6D" stroke-opacity="0.1"/>
<g clip-path="url(#clip0)">
<path d="M139.079 69.502V140.291C139.079 143.293 136.708 145.723 133.787 145.723H81.3095C79.252 145.723 77.4694 144.519 76.5954 142.759C76.226 142.02 76.0176 141.181 76.0176 140.291V139.552L76.0772 139.47H117.304V127.543C117.304 126.225 118.383 125.16 119.712 125.16H131.374V65.21C131.374 64.8196 131.331 64.4378 131.25 64.0701H133.787C134.038 64.0701 134.285 64.0876 134.526 64.1226C137.097 64.492 139.079 66.758 139.079 69.502Z" fill="#CDBFBA"/>
<path d="M130.849 65.3852V125.335H119.282C117.964 125.335 116.894 126.4 116.894 127.718V139.645H72.9367C70.0068 139.645 67.6328 137.276 67.6328 134.354V65.3852C67.6328 62.4626 70.0068 60.0933 72.9367 60.0933H125.543C128.079 60.0933 130.201 61.8707 130.725 64.2452C130.805 64.6128 130.849 64.9946 130.849 65.3852Z" fill="#F9F3F1"/>
<path d="M119.999 70.5894V101.817C119.999 103.083 118.974 104.108 117.71 104.108H116.756C115.491 104.108 114.467 103.083 114.467 101.817V70.5894C114.467 69.3251 115.491 68.3007 116.756 68.3007H117.71C118.974 68.3007 119.999 69.3251 119.999 70.5894Z" fill="#8AC9FE"/>
<path d="M114.467 83.9086H119.999V97.7811H114.467V83.9086Z" fill="#FE646F"/>
<path d="M130.848 125.06L130.785 125.125L117.471 138.933L116.664 139.77V127.563C116.664 126.724 117.067 125.983 117.683 125.531C118.086 125.233 118.578 125.06 119.108 125.06H130.848Z" fill="#E1D3CE"/>
<path d="M90.1198 89.1694H100.789C101.968 89.1694 102.859 90.2245 102.679 91.3898C101.596 98.3854 95.4851 103.813 88.206 103.813C80.1728 103.813 73.5625 97.2026 73.5625 89.1694C73.5625 81.8903 78.9901 75.7795 85.9856 74.6964C87.1509 74.5159 88.206 75.4075 88.206 76.5868V87.2557C88.206 88.3125 89.0628 89.1694 90.1198 89.1694Z" fill="#8AC9FE"/>
<path d="M92.9629 82.4597V71.5911C92.9629 70.4161 94.0111 69.524 95.173 69.6991C98.2907 70.1691 101.201 71.6243 103.457 73.88C106.238 76.662 107.803 80.4392 107.803 84.3736H94.8766C93.8198 84.3736 92.9629 83.5167 92.9629 82.4597Z" fill="#FFE177"/>
<path d="M78.1355 139.646H72.9388C70.0079 139.646 67.6348 137.276 67.6348 134.354V65.3857C67.6348 62.4634 70.0079 60.0938 72.9388 60.0938H78.1355C75.2046 60.0938 72.8314 62.4634 72.8314 65.3857V134.354C72.8314 137.276 75.2046 139.646 78.1355 139.646Z" fill="#E1D3CE"/>
<path d="M88.5018 73.9026C87.79 73.2927 86.8493 73.0247 85.9206 73.169C78.2874 74.3507 72.5312 81.0575 72.5312 88.7696C72.5312 92.9598 74.1803 96.9165 77.1745 99.9109C80.1686 102.905 84.1253 104.554 88.3158 104.554C96.0278 104.554 102.735 98.7979 103.916 91.1647C104.06 90.2361 103.793 89.2953 103.183 88.5835C102.576 87.8762 101.694 87.4704 100.762 87.4704H90.2089C89.8813 87.4704 89.6149 87.204 89.6149 86.8764V76.3227C89.6149 75.3909 89.2091 74.5089 88.5018 73.9026ZM90.2089 90.0687H100.762C100.998 90.0687 101.144 90.1976 101.21 90.2745C101.278 90.3538 101.386 90.5234 101.349 90.7672C100.361 97.1457 94.7582 101.956 88.3158 101.956C81.0448 101.956 75.1296 96.0406 75.1296 88.7696C75.1296 82.3273 79.9396 76.7242 86.3182 75.7367C86.3528 75.7313 86.3859 75.7289 86.4174 75.7289C86.6083 75.7289 86.7427 75.817 86.8108 75.8754C86.8875 75.9412 87.0166 76.0869 87.0166 76.3229V86.8764C87.0166 88.6367 88.4486 90.0687 90.2089 90.0687Z" fill="black"/>
<path d="M138.885 130.364C139.602 130.364 140.184 129.782 140.184 129.065V69.2912C140.184 65.6883 137.254 62.7572 133.652 62.7572H131.049C129.99 60.5717 127.75 59.0607 125.162 59.0607H73.2527C69.6498 59.0607 66.7188 61.9918 66.7188 65.5946V90.0033C66.7188 90.7208 67.3004 91.3025 68.0179 91.3025C68.7354 91.3025 69.3171 90.7208 69.3171 90.0033V65.5946C69.3171 63.4245 71.0826 61.659 73.2527 61.659H125.162C127.333 61.659 129.099 63.4245 129.099 65.5946V123.598H118.985C116.969 123.598 115.328 125.238 115.328 127.255V137.754H73.2527C71.0826 137.754 69.3171 135.989 69.3171 133.82V95.8929C69.3171 95.1754 68.7354 94.5937 68.0179 94.5937C67.3004 94.5937 66.7188 95.1754 66.7188 95.8929V133.82C66.7188 137.422 69.6498 140.352 73.2527 140.352H75.2324C75.5297 143.681 78.3335 146.3 81.7387 146.3H133.652C137.253 146.3 140.184 143.369 140.184 139.767V135.128C140.184 134.41 139.602 133.829 138.885 133.829C138.167 133.829 137.585 134.41 137.585 135.128V139.767C137.585 141.937 135.821 143.702 133.652 143.702H81.7388C79.7677 143.702 78.1308 142.245 77.8471 140.352H116.612C116.617 140.352 116.623 140.353 116.628 140.353C116.967 140.353 117.305 140.221 117.559 139.959L131.33 125.803C131.563 125.564 131.698 125.231 131.698 124.897V65.3556H133.652C135.821 65.3556 137.586 67.121 137.586 69.2912V129.065C137.586 129.782 138.167 130.364 138.885 130.364ZM118.985 126.196H127.323L117.927 135.856V127.255C117.927 126.671 118.401 126.196 118.985 126.196Z" fill="black"/>
<path d="M118.323 119.599C118.323 118.882 117.742 118.3 117.024 118.3H76.9007C76.1832 118.3 75.6016 118.882 75.6016 119.599C75.6016 120.317 76.1832 120.898 76.9007 120.898H117.024C117.742 120.898 118.323 120.317 118.323 119.599Z" fill="black"/>
<path d="M76.5042 124.836C75.7868 124.836 75.2051 125.418 75.2051 126.135C75.2051 126.853 75.7868 127.435 76.5042 127.435H104.999C105.717 127.435 106.298 126.853 106.298 126.135C106.298 125.418 105.717 124.836 104.999 124.836H76.5042Z" fill="black"/>
<path d="M75.6016 113.063C75.6016 113.781 76.1832 114.362 76.9007 114.362H117.024C117.742 114.362 118.323 113.781 118.323 113.063C118.323 112.346 117.742 111.764 117.024 111.764H76.9007C76.1832 111.764 75.6016 112.346 75.6016 113.063Z" fill="black"/>
<path d="M95.9056 68.0394C94.9799 67.8997 94.0433 68.1694 93.3354 68.7788C92.6307 69.385 92.2266 70.266 92.2266 71.1957V81.9469C92.2266 83.7072 93.6586 85.1392 95.4189 85.1392H108.206C108.923 85.1392 109.505 84.5575 109.505 83.8401C109.505 79.6337 107.799 75.5155 104.825 72.5411C102.427 70.1437 99.2597 68.5451 95.9056 68.0394ZM95.4189 82.5411C95.0908 82.5411 94.8249 82.2752 94.8249 81.9471V71.1957C94.8743 70.7554 95.1053 70.5931 95.5183 70.6087C98.3271 71.032 100.98 72.3709 102.987 74.3785C105.094 76.4852 106.441 79.2772 106.806 82.2197C106.827 82.3907 106.691 82.5409 106.519 82.5409H95.4189V82.5411Z" fill="black"/>
<path d="M113.143 97.7118C113.143 97.7157 113.143 97.7195 113.143 97.7235V101.516C113.143 103.196 114.313 104.604 115.879 104.979V107.415C115.879 108.132 116.461 108.714 117.178 108.714C117.896 108.714 118.477 108.132 118.477 107.415V104.979C120.045 104.605 121.215 103.196 121.215 101.516V75.2424C122.008 75.1925 122.78 75.4815 123.341 76.0425C123.863 76.5655 124.15 77.2589 124.15 77.9951V85.2398C124.15 85.9572 124.732 86.5389 125.449 86.5389C126.167 86.5389 126.749 85.9572 126.749 85.2398V77.9951C126.749 76.566 126.192 75.2209 125.18 74.2064C124.168 73.1946 122.823 72.6375 121.393 72.6375C121.334 72.6375 121.274 72.6394 121.215 72.6415V70.6248C121.215 68.6596 119.616 67.0608 117.651 67.0608H116.707C114.742 67.0608 113.143 68.6596 113.143 70.6248V84.0154C113.143 84.0194 113.143 84.0232 113.143 84.0272C113.143 84.0312 113.143 84.035 113.143 84.039V97.7001C113.143 97.704 113.143 97.7078 113.143 97.7118ZM118.617 96.4126H115.742V85.3264H118.617V96.4126ZM117.651 102.482H116.707C116.175 102.482 115.741 102.049 115.741 101.516V99.0109H118.617V101.516C118.617 102.049 118.184 102.482 117.651 102.482ZM116.707 69.6591H117.651C118.184 69.6591 118.617 70.0924 118.617 70.6248V82.728H115.742V70.6248C115.741 70.0924 116.175 69.6591 116.707 69.6591Z" fill="black"/>
</g>
<defs>
<linearGradient id="paint0_linear" x1="46.7137" y1="148.412" x2="163.753" y2="42.789" gradientUnits="userSpaceOnUse">
<stop stop-color="#79F543"/>
<stop offset="1" stop-color="#12BE57"/>
</linearGradient>
<clipPath id="clip0">
<rect width="87.2398" height="87.2398" fill="white" transform="translate(59.832 59.0607)"/>
</clipPath>
</defs>
</svg>
