<svg width="204" height="205" viewBox="0 0 204 205" fill="none" xmlns="http://www.w3.org/2000/svg">
<path d="M43.3265 84.3611C38.853 121.491 75.3103 153.306 94.0982 164.572C112.06 175.118 125.885 162.246 130.552 154.492C135.154 145.627 147.041 126.893 157.77 122.879C171.181 117.863 174.619 94.7825 160.633 89.6153C149.444 85.4815 142.524 71.3081 140.463 64.7381C132.343 29.0495 94.3821 32.5889 88.4555 46.6766C82.5289 60.7643 66.3866 64.8988 55.5116 67.4646C46.8116 69.5172 43.7632 79.5842 43.3265 84.3611Z" fill="url(#paint0_linear)"/>
<path d="M39.4737 83.2808C34.7296 122.608 73.4323 156.311 93.3766 168.246C112.444 179.418 127.117 165.786 132.07 157.573C136.955 148.184 149.57 128.343 160.958 124.093C175.193 118.781 178.839 94.3349 163.993 88.8601C152.116 84.4803 144.769 69.4671 142.58 62.5079C133.957 24.7057 93.6621 28.45 87.3728 43.371C81.0835 58.2919 63.9492 62.6692 52.406 65.3855C43.1714 67.5586 39.9367 78.2211 39.4737 83.2808Z" stroke="#6D6E6D" stroke-opacity="0.32"/>
<path d="M171.743 77.924C151.422 40.5353 96.6218 34.9174 71.7616 36.782C48.1428 38.7735 43.797 59.7831 44.5764 70.0389C46.1484 81.2833 47.4646 106.462 40.1533 117.221C31.0142 130.67 43.036 154.342 59.4205 149.966C72.5281 146.466 88.2909 155.081 94.5339 159.826C125.591 187.62 158.485 159.444 154.7 142.485C150.915 125.526 163.17 111.105 171.571 101.593C178.292 93.9839 174.486 82.6432 171.743 77.924Z" stroke="#6D6E6D" stroke-opacity="0.25"/>
<path d="M153.061 155.572C178.634 121.554 160.851 69.5532 148.763 47.805C137.078 27.2348 116.12 32.0659 107.101 37.0528C97.5133 43.1703 75.123 54.872 62.2647 52.7378C46.1918 50.0701 29.6484 70.8434 40.4823 83.8634C49.1494 94.2794 47.8874 112.158 46.1731 119.796C33.829 159.537 73.2469 177.584 87.1165 167.076C100.986 156.568 119.247 161.653 131.424 165.296C141.165 168.209 149.907 160.027 153.061 155.572Z" stroke="#6D6E6D" stroke-opacity="0.1"/>
<g clip-path="url(#clip0)">
<path d="M123.427 146.88H74.9521C72.3628 146.88 70.2637 144.781 70.2637 142.192V62.3979C70.2637 59.8086 72.3628 57.7095 74.9521 57.7095H123.427C126.016 57.7095 128.115 59.8086 128.115 62.3979V142.192C128.115 144.781 126.016 146.88 123.427 146.88Z" fill="#8AC9FE"/>
<path d="M81.1367 57.7087V63.0421C81.1367 64.8544 82.6063 66.3256 84.4203 66.3256H113.96C115.773 66.3256 117.242 64.8542 117.242 63.0421V57.7087H81.1367Z" fill="#685E68"/>
<path d="M88.5536 110.986V122.946H78.2207V110.986C78.2207 109.811 79.1723 108.859 80.3474 108.859H86.4271C87.6018 108.859 88.5536 109.811 88.5536 110.986Z" fill="#FE646F"/>
<path d="M104.288 122.945V104.695C104.288 103.521 103.336 102.567 102.161 102.567H96.0834C94.9067 102.567 93.9551 103.521 93.9551 104.695V122.945H104.288Z" fill="#FFE177"/>
<path d="M133.984 95.2732C141.795 95.2732 148.127 88.9058 148.127 81.0512C148.127 73.1965 141.795 66.8291 133.984 66.8291C126.172 66.8291 119.84 73.1965 119.84 81.0512C119.84 88.9058 126.172 95.2732 133.984 95.2732Z" fill="#6CF5C2"/>
<path d="M80.3525 146.88H74.9516C72.3628 146.88 70.2637 144.781 70.2637 142.192V62.3964C70.2637 59.8076 72.3628 57.7085 74.9516 57.7085H80.3525C77.7637 57.7085 75.6645 59.8076 75.6645 62.3964V142.192C75.6645 144.781 77.7637 146.88 80.3525 146.88Z" fill="#60B7FF"/>
<path d="M85.7477 108.86C84.5721 108.86 83.6216 109.811 83.6216 110.986V122.946H78.2207V110.986C78.2207 109.811 79.1713 108.86 80.3468 108.86H85.7477Z" fill="#FD4755"/>
<path d="M109.688 122.945L120.021 122.945V102.158C120.021 100.983 119.069 100.03 117.894 100.03H111.816C110.641 100.03 109.688 100.983 109.688 102.158L109.688 122.945Z" fill="#6CF5C2"/>
<path d="M101.484 102.568C100.306 102.568 99.354 103.52 99.354 104.696V122.945H93.9531V104.696C93.9531 103.52 94.9055 102.568 96.0829 102.568H101.484Z" fill="#FFD064"/>
<path d="M117.216 100.03C116.042 100.03 115.088 100.984 115.088 102.157V122.945H109.688V102.157C109.688 100.984 110.642 100.03 111.815 100.03H117.216Z" fill="#05E39C"/>
<path d="M136.683 95.0141C135.807 95.1851 134.899 95.2733 133.972 95.2733C126.162 95.2679 119.834 88.8949 119.84 81.0403C119.847 73.1857 126.184 66.8235 133.995 66.8289C134.914 66.8289 135.812 66.9189 136.681 67.0899C130.168 68.3573 125.248 74.12 125.241 81.0403C125.235 87.9696 130.161 93.7467 136.683 95.0141Z" fill="#05E39C"/>
<path d="M128.117 106.615C127.371 106.615 126.766 107.22 126.766 107.965V142.192C126.766 144.033 125.268 145.53 123.427 145.53H74.9522C73.1118 145.53 71.6145 144.033 71.6145 142.192V85.1017C71.6145 84.356 71.0101 83.7515 70.2643 83.7515C69.5184 83.7515 68.9141 84.356 68.9141 85.1017V142.192C68.9141 145.522 71.6228 148.23 74.9522 148.23H123.427C126.757 148.23 129.467 145.522 129.467 142.192V107.965C129.467 107.22 128.862 106.615 128.117 106.615Z" fill="black"/>
<path d="M82.11 137.84C81.3641 137.84 80.7598 138.445 80.7598 139.191C80.7598 139.936 81.3641 140.541 82.11 140.541H116.271C117.017 140.541 117.621 139.936 117.621 139.191C117.621 138.445 117.017 137.84 116.271 137.84H82.11Z" fill="black"/>
<path d="M86.4961 107.509H80.4163C78.4992 107.509 76.9394 109.069 76.9394 110.986V121.595H76.3502C75.6044 121.595 75 122.2 75 122.946C75 123.691 75.6044 124.296 76.3502 124.296H122.03C122.776 124.296 123.38 123.691 123.38 122.946C123.38 122.2 122.776 121.595 122.03 121.595H121.44V102.158C121.44 100.24 119.881 98.6797 117.964 98.6797H111.886C109.967 98.6797 108.407 100.24 108.407 102.158V121.595H105.707V104.696C105.707 102.777 104.147 101.217 102.23 101.217H96.1517C94.2337 101.217 92.6732 102.777 92.6732 104.696V121.595H89.9728V110.986C89.973 109.069 88.4134 107.509 86.4961 107.509ZM87.2725 121.595H79.6399V110.986C79.6399 110.558 79.9882 110.209 80.4163 110.209H86.4961C86.9242 110.209 87.2725 110.558 87.2725 110.986V121.595ZM111.107 102.158C111.107 101.729 111.456 101.38 111.886 101.38H117.964C118.392 101.38 118.74 101.729 118.74 102.158V121.595H111.108V102.158H111.107ZM95.3738 104.696C95.3738 104.266 95.7229 103.917 96.1519 103.917H102.23C102.658 103.917 103.006 104.266 103.006 104.696V121.595H95.3738V104.696Z" fill="black"/>
<path d="M133.792 64.8383C132.292 64.8383 130.842 65.0485 129.467 65.4408V62.3965C129.467 59.0671 126.757 56.3584 123.427 56.3584H74.9522C71.6228 56.3584 68.9141 59.0671 68.9141 62.3965V78.8907C68.9141 79.6364 69.5184 80.241 70.2643 80.241C71.0101 80.241 71.6145 79.6364 71.6145 78.8907V62.3965C71.6145 60.5561 73.1118 59.0588 74.9522 59.0588H79.7865V63.0425C79.7865 65.5976 81.8653 67.6762 84.4203 67.6762H113.96C116.515 67.6762 118.592 65.5976 118.592 63.0425V59.0588H123.427C125.268 59.0588 126.766 60.5561 126.766 62.3965V66.4915C121.582 69.0803 118.013 74.4394 118.013 80.6172C118.013 86.7951 121.582 92.1541 126.766 94.743V101.844C126.766 102.59 127.371 103.195 128.117 103.195C128.862 103.195 129.467 102.59 129.467 101.844V95.7934C130.842 96.1859 132.292 96.396 133.792 96.396C142.492 96.396 149.571 89.3176 149.571 80.617C149.571 71.9164 142.492 64.8383 133.792 64.8383ZM115.892 63.0425C115.892 64.1086 115.026 64.9758 113.961 64.9758H84.4203C83.3541 64.9758 82.4869 64.1086 82.4869 63.0425V59.0588H115.892V63.0425ZM133.792 93.6957C126.58 93.6957 120.713 87.8288 120.713 80.6172C120.713 73.4056 126.58 67.5387 133.792 67.5387C141.003 67.5387 146.87 73.4056 146.87 80.6172C146.87 87.8288 141.003 93.6957 133.792 93.6957Z" fill="black"/>
<path d="M141.618 74.0684C141.029 73.6113 140.181 73.7184 139.724 74.3074L132.659 83.4136L128.384 78.8541C127.874 78.31 127.02 78.2825 126.476 78.7925C125.932 79.3025 125.904 80.1571 126.414 80.701L131.771 86.4147C132.027 86.6876 132.383 86.8416 132.756 86.8416C132.777 86.8416 132.798 86.841 132.819 86.8401C133.213 86.8218 133.58 86.6313 133.823 86.3191L141.857 75.963C142.314 75.3736 142.207 74.5255 141.618 74.0684Z" fill="black"/>
</g>
<defs>
<linearGradient id="paint0_linear" x1="46.7137" y1="148.411" x2="163.753" y2="42.7889" gradientUnits="userSpaceOnUse">
<stop stop-color="#79F543"/>
<stop offset="1" stop-color="#12BE57"/>
</linearGradient>
<clipPath id="clip0">
<rect width="91.872" height="91.872" fill="white" transform="translate(63.3066 56.3584)"/>
</clipPath>
</defs>
</svg>
