<svg width="208" height="208" viewBox="0 0 208 208" fill="none" xmlns="http://www.w3.org/2000/svg">
<g clip-path="url(#clip0)">
<path d="M104.001 35.1C124.801 35.1 143.867 43.7665 157.734 57.2L177.667 37.2665C159.034 18.6335 133.034 6.93347 104.001 6.93347C75.4005 6.93347 49.4005 18.6335 30.334 37.2669L50.2675 57.2004C64.134 43.3335 83.2005 35.1 104.001 35.1Z" fill="#F8B64C"/>
<path d="M50.2665 57.2L30.3335 37.2665C11.7 56.3334 0 82.3334 0 110.933C0 139.533 11.7 165.533 30.3335 184.6L50.2669 164.667C36.4004 150.8 28.1669 131.733 28.1669 110.933C28.1665 90.1334 36.4 71.0665 50.2665 57.2Z" fill="#54C0EB"/>
<path d="M177.667 37.2665L157.734 57.2C171.601 71.0665 179.834 90.1334 179.834 110.933C179.834 131.733 171.168 150.8 157.734 164.667L177.668 184.6C196.301 165.967 208.001 139.967 208.001 110.933C208.001 82.3334 196.301 56.3334 177.667 37.2665Z" fill="#F1543F"/>
<path d="M157.735 57.2L138.668 76.2665C129.568 67.6 117.435 61.9665 104.001 61.9665C90.5684 61.9665 78.0015 67.6 69.3349 76.2665L50.2676 57.2C64.1345 43.3334 83.201 35.1 104.001 35.1C124.801 35.1 143.868 43.3334 157.735 57.2Z" fill="#FFD15C"/>
<path d="M69.3345 145.6L50.268 164.667C36.4014 150.8 28.168 131.733 28.168 110.933C28.168 90.1331 36.8345 71.0666 50.268 57.1996L69.3345 76.2661C60.668 84.9327 55.0345 97.4996 55.0345 110.933C54.601 124.367 60.2345 136.934 69.3345 145.6Z" fill="#84DBFF"/>
<path d="M179.833 110.933C179.833 131.733 171.166 150.8 157.733 164.667L138.666 145.6C147.333 136.5 152.966 124.367 152.966 110.933C152.966 97.5004 147.333 84.9335 138.666 76.2669L157.733 57.2004C171.599 71.0665 179.833 90.1335 179.833 110.933Z" fill="#FF7058"/>
<path d="M170.733 69.7665L114.399 112.667C113.533 117.867 109.199 121.333 103.999 121.333C97.933 121.333 93.166 116.567 93.166 110.5C93.166 104.433 97.9326 99.6661 103.999 99.6661C105.299 99.6661 106.166 99.6661 107.466 100.1L170.733 69.7665Z" fill="#40596B"/>
<path d="M103.999 115.268C106.393 115.268 108.333 113.328 108.333 110.935C108.333 108.541 106.393 106.601 103.999 106.601C101.606 106.601 99.666 108.541 99.666 110.935C99.666 113.328 101.606 115.268 103.999 115.268Z" fill="white"/>
</g>
<defs>
<clipPath id="clip0">
<rect width="208" height="208" fill="white"/>
</clipPath>
</defs>
</svg>
