<svg width="204" height="205" viewBox="0 0 204 205" fill="none" xmlns="http://www.w3.org/2000/svg">
<path d="M43.3265 84.3611C38.853 121.491 75.3103 153.306 94.0982 164.572C112.06 175.118 125.885 162.246 130.552 154.492C135.154 145.627 147.041 126.893 157.77 122.879C171.181 117.863 174.619 94.7825 160.633 89.6153C149.444 85.4815 142.524 71.3081 140.463 64.7381C132.343 29.0495 94.3821 32.5889 88.4555 46.6766C82.5289 60.7643 66.3866 64.8988 55.5116 67.4646C46.8116 69.5172 43.7632 79.5842 43.3265 84.3611Z" fill="url(#paint0_linear)"/>
<path d="M39.4737 83.2808C34.7296 122.608 73.4323 156.311 93.3766 168.246C112.444 179.418 127.117 165.786 132.07 157.573C136.955 148.184 149.57 128.343 160.958 124.093C175.193 118.781 178.839 94.3349 163.993 88.8601C152.116 84.4803 144.769 69.4671 142.58 62.5079C133.957 24.7057 93.6621 28.45 87.3728 43.371C81.0835 58.2919 63.9492 62.6692 52.406 65.3855C43.1714 67.5586 39.9367 78.2211 39.4737 83.2808Z" stroke="#6D6E6D" stroke-opacity="0.32"/>
<path d="M171.743 77.924C151.422 40.5353 96.6218 34.9174 71.7616 36.782C48.1428 38.7735 43.797 59.7831 44.5764 70.0389C46.1484 81.2833 47.4646 106.462 40.1533 117.221C31.0142 130.67 43.036 154.342 59.4205 149.966C72.5281 146.466 88.2909 155.081 94.5339 159.826C125.591 187.62 158.485 159.444 154.7 142.485C150.915 125.526 163.17 111.105 171.571 101.593C178.292 93.9839 174.486 82.6432 171.743 77.924Z" stroke="#6D6E6D" stroke-opacity="0.25"/>
<path d="M153.061 155.572C178.634 121.554 160.851 69.5532 148.763 47.805C137.078 27.2348 116.12 32.0659 107.101 37.0528C97.5133 43.1703 75.123 54.872 62.2647 52.7378C46.1918 50.0701 29.6484 70.8434 40.4823 83.8634C49.1494 94.2794 47.8874 112.158 46.1731 119.796C33.829 159.537 73.2469 177.584 87.1165 167.076C100.986 156.568 119.247 161.653 131.424 165.296C141.165 168.209 149.907 160.027 153.061 155.572Z" stroke="#6D6E6D" stroke-opacity="0.1"/>
<g clip-path="url(#clip0)">
<path d="M105.97 111.078H109.091C116.236 111.078 122.028 116.871 122.028 124.016V134.864C122.028 135.706 121.345 136.389 120.504 136.389H69.2314C68.3896 136.389 67.707 135.706 67.707 134.864V124.016C67.707 116.871 73.4993 111.078 80.6443 111.078H82.7519" fill="#8AC9FE"/>
<path d="M132.945 132.205C144.932 132.205 154.649 122.488 154.649 110.502C154.649 98.5157 144.932 88.7988 132.945 88.7988C120.959 88.7988 111.242 98.5157 111.242 110.502C111.242 122.488 120.959 132.205 132.945 132.205Z" fill="#FFE177"/>
<path d="M102.246 100.14V112.903L89.4653 113.206L86.3906 113.279V100.14H102.246Z" fill="#FFCEBF"/>
<path d="M133.374 99.9567L136.508 106.307C136.578 106.448 136.713 106.546 136.87 106.569L143.877 107.587C144.271 107.645 144.428 108.128 144.143 108.406L139.072 113.349C138.959 113.459 138.908 113.618 138.934 113.773L140.131 120.753C140.199 121.145 139.787 121.443 139.435 121.258L133.167 117.963C133.028 117.89 132.861 117.89 132.721 117.963L126.453 121.258C126.101 121.443 125.69 121.145 125.757 120.753L126.954 113.773C126.98 113.618 126.929 113.459 126.816 113.349L121.745 108.406C121.46 108.128 121.617 107.644 122.011 107.587L129.019 106.569C129.175 106.546 129.31 106.448 129.38 106.307L132.514 99.9567C132.69 99.6 133.198 99.6 133.374 99.9567Z" fill="#FFC344"/>
<path d="M108.861 78.9759V89.8598C108.861 95.4036 104.366 99.8967 98.8221 99.8967H88.658C83.1142 99.8967 78.6191 95.4036 78.6191 89.8598V77.5968C78.6191 77.454 78.623 77.3132 78.6289 77.1724V68.9792H108.902L108.861 78.9759Z" fill="#FFCEBF"/>
<path d="M101.022 113.804L86.1387 113.979L88.4584 118.415L90.4079 121.737C90.5203 121.928 90.7257 122.046 90.9476 122.046H96.4715C96.6673 122.046 96.8518 121.954 96.9702 121.798L101.022 113.804Z" fill="#FE646F"/>
<path d="M89.1101 135.396L90.5478 122.423C90.5716 122.208 90.753 122.046 90.9689 122.046H96.4037C96.6195 122.046 96.8007 122.208 96.8249 122.422L98.2824 135.396C98.3106 135.647 98.1141 135.867 97.8613 135.867H89.5312C89.2787 135.867 89.0822 135.647 89.1101 135.396Z" fill="#FE646F"/>
<path d="M91.6832 99.8962H88.6575C83.1139 99.8962 78.6191 95.4032 78.6191 89.8596V77.5975C78.6191 77.454 78.6226 77.3139 78.6296 77.1721V68.9792H83.8826V77.2386C83.8756 77.3804 83.8721 90.0295 83.8721 90.0295C83.8721 94.8447 87.2112 98.8754 91.6832 99.8962Z" fill="#FFB09E"/>
<path d="M109.386 78.4504C109.227 78.7586 108.929 78.9757 108.586 79.0212C108.463 79.037 108.327 79.051 108.178 79.0562C107.122 79.1088 105.517 78.8181 105.014 76.7257C104.244 73.5161 106.306 71.8457 101.85 71.5148C97.9646 71.2259 86.2786 69.3908 82.8501 72.9138C82.5367 73.236 82.2933 73.6019 82.1305 74.0204C82.0307 74.2743 81.9589 74.5457 81.9239 74.8399C81.9239 74.8399 81.6245 77.5907 79.1171 77.272C78.9612 77.251 78.8001 77.2177 78.6285 77.1739V77.1722C78.5883 77.1634 78.5462 77.1529 78.5042 77.1407C78.1785 77.0461 77.9124 76.8045 77.7968 76.4875C76.5396 73.0241 72.199 53.154 78.1085 52.6182C79.1626 52.5237 80.6282 52.3854 82.3424 52.2646C90.7575 51.6675 105.173 51.4644 106.485 58.6048C106.546 58.9428 106.77 59.2247 107.082 59.3683C109.167 60.3313 116.443 64.8278 109.386 78.4504Z" fill="#BC7C63"/>
<path d="M91.6435 100.14V113.155L89.4653 113.206L86.3906 113.279V100.14H91.6435Z" fill="#FFB09E"/>
<path d="M85.5569 107.237L83.2956 108.957C82.9087 109.252 82.6909 109.717 82.7124 110.203L83.1074 119.096C83.1615 120.314 84.5814 120.949 85.5257 120.178L94.3613 112.961L101.331 107.269C101.861 106.835 102.62 106.822 103.166 107.237L105.427 108.957C105.814 109.252 106.032 109.717 106.01 110.203L105.615 119.096C105.561 120.314 104.141 120.949 103.197 120.178L87.3919 107.269C86.861 106.835 86.1023 106.822 85.5569 107.237Z" fill="#26A6FE"/>
<path d="M93.7387 87.8276H87.3406C86.9852 87.8276 86.7094 88.1351 86.743 88.4888C87.0808 92.0387 90.1066 94.8546 93.7387 94.8546C97.3707 94.8546 100.397 92.0387 100.734 88.4888C100.768 88.1349 100.492 87.8276 100.137 87.8276H93.7387Z" fill="#F2F2F2"/>
<path d="M72.9619 124.107V135.031C72.9619 135.62 73.2893 136.131 73.7726 136.388H69.2323C68.3901 136.388 67.709 135.706 67.709 134.863V124.016C67.709 116.87 73.5012 111.078 80.6452 111.078H85.8981C78.7541 111.078 72.9619 116.912 72.9619 124.107Z" fill="#26A6FE"/>
<path d="M82.2828 73.686C82.2268 73.7928 82.176 73.9049 82.1305 74.0205C82.0307 74.2744 81.9589 74.5458 81.9239 74.8399C81.9239 74.8399 81.6245 77.5907 79.1171 77.272C78.9612 77.251 78.8001 77.2177 78.6285 77.174V77.1722C78.5883 77.1635 78.5462 77.153 78.5042 77.1407C78.1785 77.0461 77.9124 76.8045 77.7968 76.4876C76.5396 73.0242 72.199 53.1541 78.1085 52.6183C79.1626 52.5237 80.6282 52.3854 82.3424 52.2646C82.4807 52.2541 82.6208 52.2453 82.7626 52.2366C78.5743 53.7862 80.7525 67.3265 82.2828 73.686Z" fill="#AA6A51"/>
<path d="M135.572 132.048C134.711 132.151 133.835 132.205 132.946 132.205C120.958 132.205 111.242 122.489 111.242 110.502C111.242 98.5148 120.958 88.7986 132.946 88.7986C133.835 88.7986 134.711 88.8529 135.572 88.9562C124.823 90.2519 116.495 99.4042 116.495 110.502C116.495 121.6 124.823 130.752 135.572 132.048Z" fill="#FFD064"/>
<path d="M87.7046 80.4111V78.813C87.7046 78.0877 87.1166 77.4998 86.3914 77.4998C85.6661 77.4998 85.0781 78.0877 85.0781 78.813V80.4111C85.0781 81.1364 85.6661 81.7243 86.3914 81.7243C87.1166 81.7243 87.7046 81.1364 87.7046 80.4111Z" fill="black"/>
<path d="M101.326 80.4111V78.813C101.326 78.0877 100.738 77.4998 100.012 77.4998C99.2872 77.4998 98.6992 78.0877 98.6992 78.813V80.4111C98.6992 81.1364 99.2872 81.7243 100.012 81.7243C100.738 81.7243 101.326 81.1364 101.326 80.4111Z" fill="black"/>
<path d="M93.7393 96.1679C97.9922 96.1679 101.639 92.8494 102.042 88.6133C102.094 88.0761 101.915 87.5391 101.552 87.1402C101.191 86.7426 100.675 86.5144 100.138 86.5144H87.3412C86.8038 86.5144 86.2882 86.7426 85.9266 87.1402C85.5638 87.5391 85.3852 88.0761 85.4363 88.6133C85.8392 92.8496 89.4863 96.1679 93.7393 96.1679ZM99.2983 89.1409C98.693 91.663 96.3875 93.5414 93.7393 93.5414C91.0911 93.5414 88.7858 91.6628 88.1803 89.1409H99.2983Z" fill="black"/>
<path d="M149.22 94.2269C140.246 85.2528 125.644 85.2528 116.67 94.2269C112.363 98.5342 110.124 104.138 109.951 109.794C109.665 109.777 107.299 109.765 107.299 109.765C107.201 109.035 106.818 108.366 106.221 107.912L103.96 106.192C103.832 106.094 103.698 106.009 103.559 105.937V100.173C107.057 98.5666 109.622 95.2331 110.095 91.1946C110.18 90.4743 109.664 89.8218 108.944 89.7374C108.223 89.652 107.571 90.1684 107.487 90.8887C106.972 95.2753 103.247 98.583 98.821 98.583H88.6566C83.8455 98.583 79.9315 94.6698 79.9315 89.8597V78.5827C80.5907 78.5111 81.1908 78.2756 81.6968 77.8762C82.964 76.8765 83.199 75.2413 83.2275 74.9955C83.7339 71.0045 95.2757 72.1808 99.6223 72.6236C100.458 72.7089 101.18 72.7824 101.753 72.8249C103.085 72.9239 103.44 73.1345 103.504 73.1825C103.554 73.3319 103.537 73.7941 103.523 74.1352C103.495 74.8648 103.457 75.8641 103.737 77.031C104.211 79.0062 105.614 80.2132 107.548 80.3603V85.0883C107.548 85.8135 108.136 86.4015 108.861 86.4015C109.586 86.4015 110.174 85.8135 110.174 85.0883V79.5727C110.174 79.5608 110.173 79.5492 110.173 79.5375C110.325 79.3983 110.457 79.2384 110.552 79.0549C113.594 73.1823 114.446 68.1919 113.086 64.222C111.831 60.5583 109.023 58.8429 107.75 58.2321C105.821 48.7847 85.9053 50.5918 78.3854 51.2741L77.9893 51.31C76.796 51.4184 75.7948 52.0587 75.0939 53.162C73.6922 55.3679 73.3986 59.6588 74.2209 65.9152C74.863 70.8006 75.9978 75.3789 76.5628 76.935C76.7111 77.3437 76.9725 77.6962 77.3049 77.9641V89.86C77.3049 94.8682 80.5673 99.1262 85.0778 100.629V105.986C84.9692 106.047 82.5002 107.912 82.5002 107.912C81.9036 108.366 81.5203 109.036 81.4225 109.765H80.644C72.7868 109.765 66.3945 116.158 66.3945 124.016V124.486C66.3945 125.211 66.9825 125.799 67.7078 125.799C68.433 125.799 69.021 125.211 69.021 124.486V124.016C69.021 117.606 74.235 112.392 80.644 112.392H81.4946L81.7949 119.154C81.8422 120.217 82.4746 121.147 83.4457 121.581C84.4168 122.016 85.532 121.868 86.3558 121.195L87.8503 119.974L89.233 122.33L87.7535 134.795C87.7423 134.89 87.7419 134.984 87.7507 135.075H69.2311C69.1152 135.075 69.021 134.98 69.021 134.863V130.439C69.021 129.713 68.433 129.125 67.7078 129.125C66.9825 129.125 66.3945 129.713 66.3945 130.439V134.863C66.3945 136.428 67.667 137.702 69.2311 137.702H120.503C122.068 137.702 123.342 136.428 123.342 134.863V131.431C126.315 132.797 129.574 133.518 132.945 133.518C139.093 133.518 144.873 131.124 149.22 126.777C158.194 117.803 158.194 103.201 149.22 94.2269ZM77.3108 54.5703C77.6465 54.0421 77.9765 53.9484 78.226 53.9256C78.226 53.9256 88.4463 52.9981 94.2974 53.5164C98.8963 53.9239 104.52 55.1786 105.193 58.8429C105.332 59.5958 105.832 60.2382 106.531 60.5611C107.432 60.9775 109.634 62.2506 110.601 65.0735C111.705 68.2927 110.941 72.5161 108.333 77.6286C108.237 77.6727 108.11 77.7214 108.02 77.7487C106.786 77.775 106.453 77.094 106.291 76.4185C106.096 75.603 106.122 74.9081 106.148 74.2359C106.184 73.3012 106.221 72.3345 105.528 71.5047C104.884 70.7327 103.813 70.3442 101.947 70.2057C101.41 70.1657 100.705 70.0939 99.8884 70.0108C97.5882 69.7763 94.5824 69.4699 91.6285 69.4699C86.2996 69.4699 81.1425 70.4678 80.6193 74.6857C80.5032 75.5889 79.9031 76.1383 78.9861 75.91C77.7995 72.4826 74.9286 58.3197 77.3108 54.5703ZM104.631 110.003C104.675 110.036 104.7 110.089 104.697 110.145L104.303 119.037C104.301 119.069 104.298 119.142 104.203 119.184C104.108 119.227 104.051 119.18 104.027 119.161L96.4367 112.961L102.161 108.286C102.221 108.236 102.307 108.235 102.37 108.282L104.631 110.003ZM88.6564 101.21H98.8209C99.5412 101.21 100.247 101.142 100.933 101.013V105.961C100.782 106.044 100.636 106.14 100.499 106.252L94.3606 111.266L88.222 106.252C88.0595 106.119 87.8851 106.009 87.7041 105.918V101.167C88.0186 101.193 88.3355 101.21 88.6564 101.21ZM84.6943 119.161C84.6702 119.18 84.6134 119.227 84.5185 119.184C84.4235 119.141 84.4201 119.068 84.4187 119.037L84.0239 110.144C84.0214 110.089 84.0461 110.036 84.0902 110.002L86.3515 108.282C86.4138 108.235 86.4998 108.236 86.5605 108.286L92.2845 112.961L84.6943 119.161ZM94.3606 114.657L98.2985 117.873L96.13 120.733H91.3412L89.9089 118.293L94.3606 114.657ZM91.7557 123.359H95.6174L97.0272 135.075H90.365L91.7557 123.359ZM120.715 134.863C120.715 134.98 120.62 135.075 120.503 135.075H99.6415C99.6503 134.983 99.6501 134.889 99.6386 134.793L98.1494 122.416L100.334 119.536L102.365 121.195C102.876 121.612 103.499 121.827 104.13 121.827C104.516 121.827 104.906 121.747 105.275 121.581C106.246 121.147 106.879 120.216 106.926 119.154L107.226 112.391C107.226 112.391 109.712 112.404 110.021 112.429C110.457 117.665 112.672 122.779 116.67 126.777C117.91 128.017 119.266 129.097 120.715 130.009V134.863H120.715ZM147.363 124.92C143.512 128.771 138.391 130.892 132.945 130.892C129.315 130.892 125.831 129.949 122.77 128.181C122.721 128.147 122.669 128.117 122.616 128.091C121.142 127.222 119.768 126.161 118.527 124.92C110.577 116.97 110.577 104.034 118.527 96.0842C122.502 92.1088 127.723 90.1218 132.945 90.1218C138.165 90.1218 143.388 92.1098 147.363 96.0842C155.313 104.034 155.313 116.97 147.363 124.92Z" fill="black"/>
<path d="M144.068 106.288L137.494 105.333L134.554 99.3757C134.249 98.7592 133.633 98.3762 132.946 98.3762C132.258 98.3762 131.642 98.7592 131.338 99.3757L128.398 105.333L121.824 106.288C121.143 106.387 120.589 106.854 120.376 107.508C120.164 108.162 120.338 108.866 120.83 109.346L125.587 113.983L124.464 120.531C124.348 121.208 124.621 121.88 125.177 122.284C125.733 122.689 126.457 122.741 127.066 122.421L132.946 119.33L138.826 122.421C139.091 122.56 139.377 122.629 139.662 122.629C140.032 122.629 140.4 122.513 140.714 122.284C141.27 121.88 141.543 121.208 141.427 120.531L140.304 113.983L145.061 109.346C145.554 108.866 145.727 108.162 145.515 107.508C145.303 106.854 144.748 106.387 144.068 106.288ZM138.158 112.408C137.735 112.82 137.542 113.413 137.642 113.995L138.554 119.31L133.78 116.801C133.519 116.664 133.233 116.595 132.946 116.595C132.66 116.595 132.373 116.664 132.112 116.801L127.339 119.31L128.25 113.995C128.35 113.414 128.157 112.821 127.735 112.408L123.873 108.644L129.209 107.869C129.793 107.784 130.298 107.417 130.56 106.888L132.946 102.052L135.333 106.888C135.594 107.417 136.099 107.784 136.683 107.869L142.019 108.644L138.158 112.408Z" fill="black"/>
</g>
<defs>
<linearGradient id="paint0_linear" x1="46.7137" y1="148.411" x2="163.753" y2="42.7889" gradientUnits="userSpaceOnUse">
<stop stop-color="#79F543"/>
<stop offset="1" stop-color="#12BE57"/>
</linearGradient>
<clipPath id="clip0">
<rect width="89.5559" height="89.5559" fill="white" transform="translate(66.3945 49.4102)"/>
</clipPath>
</defs>
</svg>
