<svg width="204" height="205" viewBox="0 0 204 205" fill="none" xmlns="http://www.w3.org/2000/svg">
<path d="M44.016 84.3611C39.5424 121.491 75.9998 153.306 94.7876 164.572C112.749 175.118 126.574 162.246 131.241 154.492C135.844 145.627 147.731 126.893 158.46 122.879C171.871 117.863 175.308 94.7825 161.322 89.6153C150.133 85.4815 143.214 71.3081 141.152 64.7381C133.033 29.0495 95.0716 32.5889 89.145 46.6766C83.2184 60.7643 67.076 64.8988 56.2011 67.4646C47.5011 69.5172 44.4527 79.5842 44.016 84.3611Z" fill="url(#paint0_linear)"/>
<path d="M40.1632 83.2808C35.4191 122.608 74.1218 156.311 94.0661 168.246C113.133 179.418 127.807 165.786 132.76 157.573C137.644 148.184 150.259 128.343 161.648 124.093C175.883 118.781 179.529 94.3349 164.682 88.8601C152.805 84.4803 145.458 69.4671 143.269 62.5079C134.646 24.7057 94.3516 28.45 88.0623 43.371C81.773 58.2919 64.6387 62.6692 53.0954 65.3855C43.8608 67.5586 40.6262 78.2211 40.1632 83.2808Z" stroke="#6D6E6D" stroke-opacity="0.32"/>
<path d="M172.432 77.924C152.112 40.5353 97.3113 34.9174 72.451 36.782C48.8323 38.7735 44.4864 59.7831 45.2659 70.0389C46.8378 81.2833 48.154 106.462 40.8428 117.221C31.7037 130.67 43.7255 154.342 60.11 149.966C73.2175 146.466 88.9803 155.081 95.2233 159.826C126.28 187.62 159.175 159.444 155.39 142.485C151.605 125.526 163.86 111.105 172.261 101.593C178.981 93.9839 175.175 82.6432 172.432 77.924Z" stroke="#6D6E6D" stroke-opacity="0.25"/>
<path d="M153.75 155.572C179.323 121.554 161.54 69.5532 149.452 47.805C137.767 27.2348 116.809 32.0659 107.791 37.0528C98.2027 43.1703 75.8124 54.872 62.9541 52.7378C46.8812 50.0701 30.3379 70.8434 41.1718 83.8634C49.8389 94.2794 48.5769 112.158 46.8625 119.796C34.5184 159.537 73.9363 177.584 87.806 167.076C101.676 156.568 119.936 161.653 132.113 165.296C141.855 168.209 150.597 160.027 153.75 155.572Z" stroke="#6D6E6D" stroke-opacity="0.1"/>
<g clip-path="url(#clip0)">
<path d="M87.8438 85.995L87.8919 60.9963C87.8936 58.9325 89.5722 57.2607 91.6413 57.2625L129.144 57.333C131.211 57.3381 132.884 59.0167 132.881 61.0806L132.848 86.695L124.142 90.821L94.9039 89.7891L87.8438 85.995Z" fill="#6CF5C2"/>
<path d="M120.907 90.2401C121.568 86.2866 119.966 82.1233 116.454 79.6843C111.6 76.3128 104.932 77.5145 101.563 82.3689C99.957 84.6813 99.3869 87.4034 99.757 89.9849L120.907 90.2401Z" fill="#05E39C"/>
<path d="M96.5481 57.2711C94.5978 57.4018 93.0533 59.0477 93.0516 61.0617L93.0034 86.0758L87.8438 85.995L87.8919 60.9963C87.8936 58.9325 89.5722 57.2607 91.6413 57.2625L96.5481 57.2711Z" fill="#05E39C"/>
<path d="M135.47 123.281L135.461 136.471C135.458 139.484 133.185 141.926 130.383 141.923L73.3258 141.876C70.5245 141.872 68.2547 139.427 68.2578 136.414L68.2907 91.4367C68.2922 88.4218 70.5652 85.9802 73.368 85.9836L130.424 86.0325C133.225 86.0342 135.495 88.479 135.494 91.4923L135.483 106.318L135.493 123.327" fill="#BC7C63"/>
<path d="M133.921 123.379L125.293 123.372C121.978 123.369 119.293 120.68 119.295 117.364L119.299 112.21C119.301 108.894 121.991 106.208 125.307 106.211L133.935 106.218C137.25 106.221 139.935 108.91 139.933 112.226L139.929 117.38C139.927 120.696 137.237 123.382 133.921 123.379Z" fill="#AA6A51"/>
<path d="M76.7868 141.879L73.3263 141.876C70.5246 141.873 68.2561 139.427 68.2578 136.414L68.2905 91.4367C68.2922 88.4217 70.5659 85.9795 73.3693 85.9829L78.3261 85.9881C75.6155 86.0999 73.4519 88.5094 73.4502 91.4677L73.4175 136.706C73.4158 139.091 74.8209 141.121 76.7868 141.879Z" fill="#AA6A51"/>
<path d="M75.2748 100.28C83.7939 100.28 90.7 93.3735 90.7 84.8544C90.7 76.3353 83.7939 69.4292 75.2748 69.4292C66.7557 69.4292 59.8496 76.3353 59.8496 84.8544C59.8496 93.3735 66.7557 100.28 75.2748 100.28Z" fill="#FFE177"/>
<path d="M75.274 93.5132C80.0562 93.5132 83.9328 89.6365 83.9328 84.8544C83.9328 80.0722 80.0562 76.1956 75.274 76.1956C70.4919 76.1956 66.6152 80.0722 66.6152 84.8544C66.6152 89.6365 70.4919 93.5132 75.274 93.5132Z" fill="#FFC344"/>
<path d="M69.5266 95.7621C71.8794 98.1149 74.8049 99.5493 77.8526 100.064C73.0971 100.865 68.0372 99.4324 64.3669 95.7621C58.3438 89.7373 58.3438 79.9718 64.3669 73.947C68.0372 70.2768 73.0971 68.8441 77.8526 69.6455C74.8049 70.1598 71.8794 71.5942 69.5266 73.947C63.5035 79.9718 63.5035 89.7373 69.5266 95.7621Z" fill="#FFD064"/>
<path d="M129.258 123.375L125.292 123.372C121.978 123.368 119.293 120.68 119.295 117.364L119.298 112.21C119.302 108.894 121.992 106.207 125.308 106.211L130.256 106.214C127.038 106.322 124.461 108.964 124.458 112.21L124.455 117.488C124.451 120.393 126.517 122.82 129.258 123.375Z" fill="#935B44"/>
<path d="M77.1046 140.589L73.3281 140.586C71.2424 140.583 69.5466 138.712 69.5479 136.414L69.5741 100.562C71.4123 101.226 73.3436 101.562 75.2759 101.562C79.5562 101.562 83.8366 99.9324 87.0951 96.6737C89.7341 94.0347 91.3037 90.7256 91.8056 87.2891C91.8056 87.2891 131.646 87.486 132.195 87.8068C133.435 88.5358 134.205 89.9473 134.204 91.4909L134.202 95.1199C134.202 95.8323 134.779 96.41 135.492 96.4104H135.492C136.204 96.4104 136.782 95.8333 136.782 95.121L136.784 91.4923C136.786 89.3082 135.788 87.2765 134.14 86.0148L134.171 61.0824C134.176 58.3103 131.922 56.0495 129.146 56.0426L91.6427 55.9724C91.6412 55.9724 91.6401 55.9724 91.6386 55.9724C88.8639 55.9724 86.6048 58.2248 86.6024 60.9936L86.599 62.6981C86.5976 63.4104 87.1739 63.9892 87.8863 63.9906H87.889C88.6002 63.9906 89.1774 63.4147 89.179 62.7032L89.1824 60.9973C89.1834 59.6487 90.285 58.5523 91.6372 58.5523H91.6393L129.141 58.6228C130.494 58.6262 131.594 59.7276 131.591 61.0788L131.561 84.853C131.187 84.7811 121.743 84.7352 121.743 84.7352C120.935 82.2661 119.345 80.1221 117.191 78.6251C114.56 76.7972 111.376 76.1036 108.224 76.6718C105.071 77.2401 102.33 79.0023 100.505 81.6327C99.839 82.5896 99.3241 83.6235 98.964 84.7154L91.9795 84.7094C91.952 81.5028 91.0101 78.304 89.1537 75.54L89.1668 68.5507C89.1681 67.8383 88.5916 67.2597 87.8792 67.2583C87.8784 67.2583 87.8775 67.2583 87.8767 67.2583C87.1655 67.2583 86.5881 67.8343 86.5867 68.5459L86.5793 72.545C80.0302 66.5248 69.8047 66.6865 63.4563 73.0351C56.9391 79.5523 56.9391 90.1567 63.4563 96.6738C64.5355 97.7531 65.7286 98.6497 66.9949 99.3715L66.9679 136.413C66.9659 140.132 69.8174 143.162 73.3252 143.166L77.1021 143.169H77.1033C77.8151 143.169 78.3925 142.593 78.3932 141.881C78.394 141.168 77.817 140.59 77.1046 140.589ZM102.624 83.1047C104.056 81.0398 106.208 79.6569 108.682 79.2109C111.154 78.7648 113.654 79.3093 115.719 80.7439C117.171 81.7527 118.296 83.1359 118.987 84.7328L101.722 84.7178C101.967 84.1561 102.268 83.6166 102.624 83.1047ZM65.2807 74.8592C68.0363 72.1036 71.6562 70.7258 75.2759 70.7258C78.8956 70.7258 82.5152 72.1036 85.271 74.8592C90.7822 80.3706 90.7822 89.3382 85.271 94.8496C79.7596 100.361 70.7921 100.361 65.2807 94.8496C59.7693 89.3383 59.7693 80.3706 65.2807 74.8592Z" fill="black"/>
<path d="M136.773 105.505L136.776 100.969C136.776 100.257 136.199 99.6787 135.487 99.6782C135.486 99.6782 135.486 99.6782 135.486 99.6782C134.774 99.6782 134.196 100.255 134.196 100.967L134.193 104.935C134.108 104.931 125.308 104.92 125.308 104.92C125.306 104.92 125.304 104.92 125.302 104.92C123.356 104.92 121.526 105.678 120.149 107.052C118.77 108.429 118.01 110.26 118.009 112.208L118.005 117.363C118.002 121.384 121.271 124.658 125.292 124.661C125.292 124.661 134.095 124.665 134.179 124.662L134.17 136.469C134.17 137.6 133.764 138.658 133.028 139.448C132.316 140.212 131.38 140.632 130.388 140.632C130.387 140.632 130.385 140.632 130.384 140.632L82.9511 140.594C82.9508 140.594 82.9504 140.594 82.9501 140.594C82.2382 140.594 81.6607 141.171 81.6602 141.883C81.6596 142.596 82.2367 143.174 82.949 143.174L130.381 143.212H130.389C132.104 143.212 133.711 142.5 134.915 141.206C136.097 139.937 136.749 138.255 136.75 136.471L136.76 124.098C137.615 123.737 138.402 123.212 139.078 122.536C140.457 121.16 141.217 119.329 141.218 117.381L141.222 112.226C141.224 109.211 139.387 106.616 136.773 105.505ZM138.638 117.379C138.637 118.638 138.146 119.821 137.255 120.711C136.364 121.6 135.181 122.083 133.921 122.089L125.293 122.082C122.695 122.079 120.582 119.963 120.584 117.365L120.588 112.21C120.589 110.951 121.08 109.768 121.971 108.878C122.861 107.99 124.044 107.5 125.301 107.5H125.305L133.933 107.508C136.531 107.51 138.644 109.626 138.642 112.224L138.638 117.379Z" fill="black"/>
<path d="M85.2236 84.8542C85.2236 79.3685 80.7607 74.9055 75.2749 74.9055C69.7891 74.9055 65.3262 79.3685 65.3262 84.8542C65.3262 90.34 69.7891 94.803 75.2749 94.803C80.7607 94.803 85.2236 90.34 85.2236 84.8542ZM75.2749 92.2231C71.2116 92.2231 67.906 88.9175 67.906 84.8542C67.906 80.791 71.2116 77.4854 75.2749 77.4854C79.3381 77.4854 82.6438 80.791 82.6438 84.8542C82.6438 88.9175 79.3381 92.2231 75.2749 92.2231Z" fill="black"/>
</g>
<defs>
<linearGradient id="paint0_linear" x1="47.4032" y1="148.411" x2="164.443" y2="42.7889" gradientUnits="userSpaceOnUse">
<stop stop-color="#79F543"/>
<stop offset="1" stop-color="#12BE57"/>
</linearGradient>
<clipPath id="clip0">
<rect width="87.2398" height="87.2398" fill="white" transform="translate(56.2754 55.9724)"/>
</clipPath>
</defs>
</svg>
